<svg xmlns="http://www.w3.org/2000/svg" xmlns:xlink="http://www.w3.org/1999/xlink" width="3279.54" height="2815.802" viewBox="0 0 867.712 745.014"><defs><linearGradient id="b"><stop offset="0" style="stop-color:#ef1d26;stop-opacity:1"/><stop offset="1" style="stop-color:#ef1d26;stop-opacity:0"/></linearGradient><linearGradient xlink:href="#b" id="c" x1="332.071" x2="1092.479" y1="35.524" y2="523.17" gradientUnits="userSpaceOnUse"/><pattern xlink:href="#a" id="d" patternTransform="matrix(10 0 0 10 -2880.762 -1111.25)"/><pattern id="a" width="10" height="10" patternTransform="scale(10)" patternUnits="userSpaceOnUse"><circle cx="2.567" cy=".81" r=".05" style="fill:#000;stroke:none"/><circle cx="3.048" cy="2.33" r=".05" style="fill:#000;stroke:none"/><circle cx="4.418" cy="2.415" r=".05" style="fill:#000;stroke:none"/><circle cx="1.844" cy="3.029" r=".05" style="fill:#000;stroke:none"/><circle cx="6.08" cy="1.363" r=".05" style="fill:#000;stroke:none"/><circle cx="5.819" cy="4.413" r=".05" style="fill:#000;stroke:none"/><circle cx="4.305" cy="4.048" r=".05" style="fill:#000;stroke:none"/><circle cx="5.541" cy="3.045" r=".05" style="fill:#000;stroke:none"/><circle cx="4.785" cy="5.527" r=".05" style="fill:#000;stroke:none"/><circle cx="2.667" cy="5.184" r=".05" style="fill:#000;stroke:none"/><circle cx="7.965" cy="1.448" r=".05" style="fill:#000;stroke:none"/><circle cx="7.047" cy="5.049" r=".05" style="fill:#000;stroke:none"/><circle cx="4.34" cy=".895" r=".05" style="fill:#000;stroke:none"/><circle cx="7.125" cy=".34" r=".05" style="fill:#000;stroke:none"/><circle cx="9.553" cy="1.049" r=".05" style="fill:#000;stroke:none"/><circle cx="7.006" cy="2.689" r=".05" style="fill:#000;stroke:none"/><circle cx="8.909" cy="2.689" r=".05" style="fill:#000;stroke:none"/><circle cx="9.315" cy="4.407" r=".05" style="fill:#000;stroke:none"/><circle cx="7.82" cy="3.87" r=".05" style="fill:#000;stroke:none"/><circle cx="8.27" cy="5.948" r=".05" style="fill:#000;stroke:none"/><circle cx="7.973" cy="7.428" r=".05" style="fill:#000;stroke:none"/><circle cx="9.342" cy="8.072" r=".05" style="fill:#000;stroke:none"/><circle cx="8.206" cy="9.315" r=".05" style="fill:#000;stroke:none"/><circle cx="9.682" cy="9.475" r=".05" style="fill:#000;stroke:none"/><circle cx="9.688" cy="6.186" r=".05" style="fill:#000;stroke:none"/><circle cx="3.379" cy="6.296" r=".05" style="fill:#000;stroke:none"/><circle cx="2.871" cy="8.204" r=".05" style="fill:#000;stroke:none"/><circle cx="4.59" cy="8.719" r=".05" style="fill:#000;stroke:none"/><circle cx="3.181" cy="9.671" r=".05" style="fill:#000;stroke:none"/><circle cx="5.734" cy="7.315" r=".05" style="fill:#000;stroke:none"/><circle cx="6.707" cy="6.513" r=".05" style="fill:#000;stroke:none"/><circle cx="5.73" cy="9.67" r=".05" style="fill:#000;stroke:none"/><circle cx="6.535" cy="8.373" r=".05" style="fill:#000;stroke:none"/><circle cx="4.37" cy="7.154" r=".05" style="fill:#000;stroke:none"/><circle cx=".622" cy="7.25" r=".05" style="fill:#000;stroke:none"/><circle cx=".831" cy="5.679" r=".05" style="fill:#000;stroke:none"/><circle cx="1.257" cy="8.519" r=".05" style="fill:#000;stroke:none"/><circle cx="1.989" cy="6.877" r=".05" style="fill:#000;stroke:none"/><circle cx=".374" cy="3.181" r=".05" style="fill:#000;stroke:none"/><circle cx="1.166" cy="1.664" r=".05" style="fill:#000;stroke:none"/><circle cx="1.151" cy=".093" r=".05" style="fill:#000;stroke:none"/><circle cx="1.151" cy="10.093" r=".05" style="fill:#000;stroke:none"/><circle cx="1.302" cy="4.451" r=".05" style="fill:#000;stroke:none"/><circle cx="3.047" cy="3.763" r=".05" style="fill:#000;stroke:none"/></pattern></defs><g transform="translate(93.565 325.837)"><path d="M384.213-318.345c-199.983 0-362.102 162.118-362.101 362.101s162.118 362.1 362.1 362.1a362.1 362.1 0 0 0 230.653-83.347c-33.008-6.303-64.764-18.997-93.825-39.116-105.008-72.698 58.964-230.523 58.964-254 0-14.08-57.261-26.085-45.357-49.893 13.03-26.059 75.206-19.999 86.179-52.917 10.912-32.738-17.859-57.932 2.26-84.758 13.13-17.504 8.685-29.898 28.844-41.285a362.1 362.1 0 0 0-267.717-118.885z" style="fill:url(#c);fill-opacity:1;stroke:#000;stroke-width:10;stroke-miterlimit:4;stroke-dasharray:none;stroke-opacity:1"/><path d="M390.247-318.345c-199.983 0-362.1 162.118-362.1 362.101s162.118 362.101 362.1 362.101A362.1 362.1 0 0 0 620.9 322.51c-33.009-6.304-64.764-18.998-93.825-39.117-105.008-72.698 58.964-230.523 58.964-254 0-14.08-57.262-26.084-45.357-49.893 13.029-26.058 75.206-19.999 86.178-52.916 10.913-32.739-17.858-57.932 2.261-84.759 13.129-17.504 8.685-29.898 28.844-41.285a362.1 362.1 0 0 0-267.718-118.885" style="fill:url(#d);fill-opacity:1;stroke:none;stroke-width:.30000001;stroke-miterlimit:4;stroke-dasharray:none;stroke-opacity:1"/><path d="M223.268 417.298c-55.604-6.7-125.13-24.838-149.489-38.995l-10.64-6.185-11.913-58.602c-6.553-32.23-12.769-61.297-13.814-64.59-1.552-4.89-1.197-5.418 1.932-2.874 28.946 23.529 193.465 28.944 359.473 11.831 139.904-14.422 215.183-32.587 244.58-59.018l13.47-12.11 1.547 62.438c1.775 71.632 3.583 65.636-25.473 84.494-49.992 32.447-118.768 57.666-207.586 76.12-39.039 8.11-44.988 8.606-111.354 9.272-38.561.388-79.391-.413-90.733-1.78m445.024-208.645c-.976-51.654-1.148-52.988-7.482-58.118-8.546-6.92-15.31-6.625-37.228 1.625-20.987 7.9-40.404 8.958-46.81 2.553-6.881-6.882-5.469-19.545 2.784-24.953 11.08-7.259 42.082-5.857 65.512 2.962 43.992 16.558 78.67 10.367 112.344-20.055 10.36-9.359 10.935-9.556 9.117-3.12-1.067 3.778-6.828 16.982-12.803 29.342-12.143 25.12-37.49 53.531-53.855 60.37-11.949 4.992-9.63 8.783 10.726 17.54 11.789 5.072 17.343 5.85 32.22 4.514 9.886-.888 21.686-2.453 26.223-3.48 7.697-1.74 7.33-1.094-5.5 9.662-22.197 18.612-48.632 30.267-73.244 32.295l-21.005 1.73zm-518.104 38.18c-100.96-5.505-137.78-24.19-91.035-46.2 107.718-7.657 68.828 35.44 349.185 35.545-11.581 4.14-162.628 13.994-201.567 13.152-9.829-.213-35.292-1.337-56.583-2.498m421.301-42.986c-.95-5.745-1.74-15.68-1.756-22.078l-.029-11.633 11.685 1.59c8.812 1.198 18.037-.508 37.512-6.937 27.73-9.153 33.287-8.487 33.287 3.99 0 12.628-39.624 37.225-70.417 43.711-8.197 1.727-8.627 1.366-10.28-8.643z" style="fill:#911b16;fill-opacity:1;stroke-width:2.74947906"/><path d="M335.87 204.871c-.066-12.68-.581-21.335-1.162-19.498-2.24 7.096-6.962 14.24-12.929 19.558-3.43 3.057-6.891 5.559-7.691 5.559s1.01-2.267 4.021-5.038c15.558-14.312 19.97-43.907 8.505-57.043-2.947-3.378-13.57-8.669-14.894-7.42-.19.18 2.078 2.788 5.04 5.798 21.178 21.529-8.385 51.286-41.66 41.932-13.796-3.878-23.074-11.046-35.195-27.191-2.42-3.224-2.438-3.169-1.914 6 .353 6.177 1.555 11.194 3.614 15.094 6.891 13.051 24.27 24.443 43.793 28.707 5.34 1.166 9.502 2.32 9.25 2.563-1.022.988-18.652-2.16-26.218-4.683-17.26-5.754-29.22-15.6-36.612-30.145-4.247-8.356-4.504-9.669-4.454-22.76.05-13.069.322-14.393 4.55-22.322 7.809-14.64 17.995-23.629 39.14-34.544 18.992-9.803 27.814-17.728 30.93-27.783 2.773-8.951-2.48-18.868-14.525-27.423l-4.101-2.912 4.184 1.346c21.238 6.832 27.136 37.206 9.865 50.809-4.099 3.228-4.19 3.45-1.063 2.6 28.144-7.643 24.382-42.678-5.868-54.654l-7.118-2.818 6.835.775c22.907 2.6 40.92 14.159 44.424 28.507.764 3.128 1.132-.093 1.23-10.767l.14-15.232-10.917-2.182c-29.805-5.96-51.987-25.004-57.96-49.76l-1.965-8.147h4.735c7.979 0 23.946 4.042 33.226 8.41 11.12 5.234 23.057 16.381 28.528 26.638l4.22 7.915.066-13.49.066-13.49-5.126-.85c-22.43-3.724-46.437-17.66-58.583-34.009-5.673-7.635-11.658-18.867-14.95-28.052-3.015-8.412-4.25-33.306-2.135-43.068 3.745-17.293 13.237-34.052 26.145-46.162 11.15-10.46 20.903-16.252 35.815-21.272 10.055-3.385 13.173-3.81 27.99-3.826 28.518-.038 46.145 7.004 66.028 26.35 18.83 18.322 26.614 36.515 26.614 62.2 0 25.533-7.742 43.618-26.614 62.171-9.397 9.239-13.841 12.48-23.239 16.952-10.978 5.223-26.176 9.373-34.516 9.424l-3.76.036v218.889l-5.86 5.562c-3.225 3.06-6.3 5.564-6.836 5.564-.535 0-1.026-10.262-1.09-22.804zm-34.458-28.098c7.613-2.186 16.804-10.499 16.804-15.198 0-3.06-2.087-3.533-3.201-.726-.418 1.052-2.711 2.89-5.097 4.082-11.843 5.923-25.833-7.287-21.367-20.175 5.706-16.466 35.027-14.27 44.646 3.344l2.669 4.886-.08-36.353c-.043-19.994-.529-34.568-1.078-32.387-2.955 11.737-12.69 21.686-37.57 38.391-27.572 18.515-32.235 23.448-32.235 34.098 0 17.336 15.773 25.993 36.508 20.038zm-36.641-7.465c-4.409-8.287-4.099-17.97.805-25.135 5.136-7.506 7.913-9.872 31.483-26.829 26.358-18.963 32.158-25.984 32.031-38.778-.038-3.42-.907-8.002-1.94-10.183l-1.877-3.965-.14 5.287c-.294 10.994-8.871 22.423-23.728 31.613-3.932 2.433-14.513 7.915-23.513 12.182-17.894 8.485-24.448 13.749-29.375 23.59-7.37 14.724-2.996 28.772 11.07 35.55 3.942 1.9 7.41 3.22 7.705 2.934.294-.285-.839-3.106-2.52-6.266zm67-133.784c-10.073-8.35-58.815-47.117-59.24-47.117-1.107 0 1.523 7.22 5.149 14.14 7.152 13.65 23.274 25.388 42.353 30.838 7.958 2.273 13.01 3.194 11.739 2.139zm20.285-50.855c1.182-.726.201-1.752-3.157-3.3l-4.873-2.248.29-30.388c.164-16.713.813-30.388 1.449-30.388s1.165 1.041 1.177 2.314c0 1.272 2.986 15.697 6.61 32.056 5.051 22.804 7.097 29.839 8.768 30.153 2.26.424 19.838-5.809 22.125-7.846.76-.677-1.013-1.156-4.275-1.156-3.067 0-6.163-.744-6.88-1.653-1.483-1.874-25.002-54.43-25.002-55.867 0-.877 33.567 43.368 38.873 51.24 1.348 2 3.052 3.636 3.787 3.636 1.719 0 19.42-17.079 18.561-17.91-.356-.344-3.285.275-6.508 1.374l-5.86 2-14.47-12.891c-7.958-7.09-18.796-16.897-24.085-21.791l-9.615-8.9 32.124 17.758L413.22-51.38l2.549-4.796c2.775-5.221 7.703-18.444 7.703-20.666 0-.761-2.415.897-5.367 3.684l-5.368 5.069-30.262-9.757c-16.644-5.367-29.39-9.933-28.324-10.148 1.067-.213 16.253 1.124 33.748 2.975s33.054 3.364 34.575 3.364c2.64 0 2.731-.581 1.982-12.727-.432-7-1.323-13.247-1.98-13.882-.683-.66-2.207 1.561-3.55 5.176l-2.355 6.332-31.617 2.942c-17.39 1.618-31.83 2.735-32.092 2.482-.26-.255 14.932-5.355 33.765-11.337 32.505-10.324 34.195-11.022 33.315-13.768-1.679-5.236-8.507-17.558-10.712-19.327-1.925-1.546-2.164-.958-2.187 5.366l-.038 7.103-27.614 14.54c-15.188 7.999-28.25 14.78-29.024 15.073-.775.292 1.953-2.385 6.062-5.949 4.11-3.564 16.616-14.433 27.792-24.153l20.32-17.673-4.553-4.543c-4.324-4.315-16.039-12.326-18.023-12.326-.511 0 .557 2.836 2.374 6.302l3.303 6.303-18.168 23.56c-9.992 12.96-18.87 24.24-19.727 25.07-.858.83 2.362-7.107 7.155-17.636s11.381-24.992 14.64-32.14c4.914-10.773 5.593-13.205 3.975-14.222-2.607-1.638-14.296-4.763-21.091-5.639l-5.468-.704 5.734 4.998 5.735 4.999-7.101 30.95-7.102 30.95-.364-36.035-.365-36.034-5.787.76c-7.6.997-19.118 3.388-20.759 4.308-.715.4 1.687 1.66 5.336 2.8l6.637 2.07 6.332 30.716c3.482 16.893 5.922 30.278 5.42 29.743s-7.272-14.802-15.045-31.707c-7.774-16.904-14.775-30.734-15.559-30.734-1.506 0-12.708 7.22-18.476 11.909l-3.418 2.778 6.835-.767 6.835-.767 12.303 16.817c23.133 31.622 25.802 35.463 23.155 33.321-1.458-1.179-13.723-11.764-27.256-23.523l-24.606-21.38-3.588 4.108c-3.761 4.305-11.436 17.162-10.245 17.162.38 0 2.76-1.181 5.288-2.624l4.598-2.623 27.728 15.741c15.25 8.658 28.079 16.08 28.508 16.496.43.415-1.933-.117-5.25-1.179-17.457-5.597-62.017-19.202-62.89-19.202-1.344 0-3.972 12.092-3.963 18.242v4.892l3.244-3.92 3.243-3.922 27.52 3.099c40.373 4.546 40.317 4.482 6.989 7.898-45.355 4.65-41.286 3.782-40.308 8.6 2.828 13.932 7.5 22.256 7.5 13.361 0-1.732.77-3.62 1.709-4.194 2.102-1.287 60.219-18.98 60.727-18.489.202.195-12.87 7.71-29.047 16.7s-29.74 16.858-30.141 17.485c-.886 1.386 2.707 6.93 8.798 13.578 5.178 5.652 6.196 5.572 4.44-.349-1.23-4.145-1.085-4.304 20.87-22.952 12.16-10.328 23.292-19.712 24.738-20.855 3.168-2.5-.251 2.366-22.224 31.633-10.506 13.994-15.94 22.324-15.16 23.242 1.53 1.8 13.16 7.865 17.554 9.155l3.304.97-2.962-3.643c-1.63-2.003-2.963-4.127-2.963-4.72 0-1.432 26.278-56.876 26.742-56.422.198.195-2.921 15.222-6.93 33.396s-7.093 33.235-6.85 33.47c.676.654 13.181 2.56 17.795 2.712 2.256.074 4.873-.337 5.817-.918zm44.761 222.702c-15.772-5-27.164-14.04-32.686-25.94-3.007-6.479-3.698-9.992-3.837-19.496-.252-17.277 2.435-21.153 17.323-24.987 9.14-2.354 13.7-2.26 19.497.4 10.049 4.61 13.44 18.702 6.438 26.75-4.517 5.19-12.829 7.786-17.85 5.573-4.999-2.202-5.532-.968-.924 2.137 13.334 8.984 34.802 7.002 43.294-3.996 3.702-4.796 3.633-14.439-.151-21.435-4.17-7.707-15.533-17.726-31.102-27.426-22.877-14.254-33.95-28.53-34.099-43.958-.096-10.199 3.422-16.887 12.343-23.452 6.9-5.078 19.435-10.55 27.908-12.184 3.508-.676 1.891.508-6.06 4.437-38.154 18.85-34.953 46.294 6.551 56.17 12.898 3.068 21.898 7.768 31.055 16.214 14.382 13.266 20.744 30.505 17.672 47.889-.85 4.811-2.435 10.235-3.521 12.053l-1.976 3.305 1.036-3.966c.57-2.181 1.037-9.32 1.037-15.863 0-10.664-.458-12.832-4.413-20.906-5.002-10.213-15.458-20.963-25.856-26.582-7.642-4.13-23.495-9.36-24.736-8.16-.982.95-.8 1.1 16.55 13.711 20.409 14.835 30.936 30.325 30.936 45.52 0 11.385-5.298 19.9-15.72 25.266-4.157 2.14-7.928 2.823-15.72 2.846-12.011.037-19.032-2.833-28.366-11.592l-5.81-5.452v3.824c0 5.665 5.033 14.694 10.717 19.228 8.45 6.74 18.25 9.521 31.66 8.986 23.14-.923 39.441-13.34 47.412-36.114l1.85-5.288-.753 5.79c-1.806 13.883-12.88 27.57-27.764 34.317-6.646 3.012-9.817 3.56-22.112 3.815-8.97.187-16.404-.352-19.821-1.434zm2.17-42.2c5.457-4.051 6.924-12.676 3.307-19.44-2.82-5.273-7.256-7.963-12.957-7.857-4.316.077-4.516.232-1.903 1.456 5.968 2.794 8.13 14.657 3.423 18.776-1.398 1.224-5.242 2.687-8.543 3.251l-6.001 1.026 4.1 2.189c4.808 2.565 15.463 2.91 18.574.6zm57.424-36.961c-6.73-14.254-25.928-28.25-45.425-33.118-27.433-6.85-35.83-22.647-21.494-40.437 3.477-4.314 3.187-2.787-.876 4.602-8.472 15.408-1.69 23.997 25.484 32.276 14.068 4.286 21.724 8.657 31.618 18.052 6.323 6.004 15.46 21.265 14.463 24.157-.267.78-1.965-1.71-3.77-5.532zm-95.465-94.75C362.378 18.192 376.4-.08 393.414-8.85c14.345-7.394 39.629-12.07 39.629-7.328 0 4.004-5.762 18.588-9.714 24.588-5.814 8.826-17.237 18.76-27.12 23.584-8.684 4.24-26.412 9.29-32.608 9.29-3.307 0-3.37-.188-2.655-7.824zm21.518-1.498c18.068-5.734 32.728-17.613 39.82-32.27 2.29-4.733 3.952-9.222 3.692-9.976-.26-.753-11.86 7.715-25.78 18.82C386.277 19.64 373.21 30 371.158 31.56c-6.836 5.193-4.098 5.29 11.306.402z" style="fill:#1a1a1a;fill-opacity:1;stroke:#1a1a1a;stroke-width:5.3536315;stroke-miterlimit:4;stroke-dasharray:none;stroke-opacity:0"/><path d="M640.598-64.39c-35.716-3.84-93.921-31.982-93.921-45.41 0-11.01 6.324-14.142 28.56-14.142 27.28 0 32.398-4.336 37.193-31.506 1.987-11.264 4.337-24.182 5.22-28.707l1.607-8.228 35.182 10.71c19.35 5.89 48.594 12.874 64.987 15.518 16.393 2.646 30.326 5.332 30.964 5.97 2.044 2.052-28.757 16.47-46.385 21.714-9.387 2.793-21.406 5.1-26.71 5.126-18.979.095-19.637 3.845-4.499 25.625 7.65 11.006 20.515 24.922 28.589 30.923 8.074 6.002 14.392 11.132 14.04 11.4-2.688 2.048-58.193 2.795-74.827 1.007M-37.653-88.827c.069-1.118 8.691-8.413 19.16-16.21 17.075-12.72 43.558-41.399 43.558-47.17 0-1.231-7.503-3.922-16.674-5.98-18.207-4.086-55.6-20.696-55.594-24.696 0-1.373 8.191-2.667 18.198-2.875 10.007-.207 32.073-2.883 49.035-5.945 23.663-4.273 31.383-4.688 33.173-1.784 1.283 2.081 4.111 15.774 6.286 30.43 5.378 36.243 9.025 40.263 38.35 42.266 20.203 1.38 23.178 2.373 23.982 8.002.771 5.401-2.486 7.516-20.425 13.259-11.738 3.758-31.05 8.363-42.918 10.234-22.735 3.583-96.347 3.943-96.131.47m178.981-29.638c0-9.634-9.24-14.927-26.148-14.977-18.712-.056-25.204-3.086-23.651-11.043 1.057-5.42 13.057-11.058 32.78-15.401l9.466-2.085 5.762 22.275c3.169 12.251 4.868 23.171 3.776 24.266s-1.985-.27-1.985-3.035m384.474-3.901c4.817-22.485 9.815-37.011 13.179-38.305 5.806-2.234 28.156 4.52 35.66 10.778 10.713 8.931 3.848 14.4-19.988 15.922-18.429 1.176-21.26 2.246-25.468 9.615-3.447 6.038-4.366 6.579-3.383 1.99m62.666-31.011c-151.38-63.981-316.652-60.649-494.797-10.508l-14.664 4.511-6.853-37.276c-10.525-57.25-10.64-56.275 7.9-66.541 64.847-66.117 396.805-101.648 530.274 5.861 2.706 5.955 1.509 18.462-5.54 57.89-4.946 27.661-10.076 50.293-11.4 50.293s-3.538-1.903-4.92-4.23" style="fill:#900c06;fill-opacity:1;stroke-width:3.14645052"/><path d="M656.867 186.749c-5.399-.624-10.598-2.93-14.317-6.349-2.818-2.592-4.021-5.337-4.275-9.755-.195-3.392.213-6.26 1.396-9.814 2.274-6.832 6.307-11.552 11.894-13.92 2.741-1.161 5.26-1.599 8.229-1.43 1.895.108 2.44.247 3.984 1.01 2.68 1.324 4.57 3.715 5.228 6.614.379 1.665.326 5.96-.098 7.986-.44 2.11-2.005 5.295-3.569 7.266-2.132 2.687-6.258 6.28-9.442 8.223-1.389.847-1.698 1.25-1.698 2.207 0 .424.136.886.303 1.024s1.231.504 2.365.813c1.773.483 2.638.563 6.184.566 3.76 0 4.343-.055 6.635-.673 7.077-1.91 13.23-6.745 16.636-13.077 1.245-2.313 2.78-6.617 3.31-9.284.524-2.63.452-13.834-.108-16.856-.68-3.665-1.803-8.351-2.82-11.762-2.407-8.072-2.91-9.807-3.276-11.277a67 67 0 0 0-.884-3.153c-.271-.867-.533-1.706-.581-1.864-.061-.197-.496-.09-1.376.333a68.9 68.9 0 0 1-19.476 6.034c-3.822.585-12.176.588-15.764.012-5.328-.865-10.842-2.844-15.36-5.513-6.176-3.647-11.743-9.387-15.962-16.457-3.603-6.038-6.937-15.326-7.964-22.19-1.38-9.23-.948-17.458 1.365-25.95.545-2 1.53-5.057 2.19-6.79 1.171-3.078 4.592-10.205 5.95-12.395 1.77-2.856 5.733-8.705 7.359-10.862.994-1.32 2.026-2.691 2.293-3.049 1.076-1.442 6.85-8.162 8.864-10.315.749-.8 2.17-2.329 3.16-3.396.989-1.067 3.071-3.25 4.627-4.85 6.818-7.016 8.207-8.472 8.207-8.605 0-.077-.484-2.265-1.076-4.862s-1.358-5.977-1.702-7.511l-1.576-7.033c-2.695-12.03-3.001-19.617-1.327-32.86 2.026-16.018 7.01-27.484 13.282-30.552 1.144-.559 1.752-.695 3.153-.705 1.48-.011 1.93.094 3.05.706 8.881 4.856 16.48 24.549 18.082 46.854 1.129 15.72-.417 24.583-6.313 36.2-3.11 6.13-7.322 11.963-14.51 20.1l-2.652 3.001.673 2.577c.37 1.417.92 3.613 1.22 4.88.302 1.268 1.18 4.705 1.95 7.64.771 2.934 1.707 6.52 2.079 7.97.372 1.448.715 2.672.762 2.719s.68-.076 1.408-.274c1.852-.503 6.15-1.06 9.447-1.225 6.59-.33 12.579 1.232 17.583 4.584 6.973 4.67 11.401 11.923 13.638 22.331.543 2.523.601 11.892.091 14.703-.536 2.963-2.108 8.227-3.265 10.935-3.377 7.903-9.28 14.994-17 20.422-.34.24-.62.61-.62.82 0 .212.866 3.072 1.925 6.355 2.943 9.134 3.848 12.287 4.504 15.695 1.865 9.69 1.936 16.466.255 24.351-1.742 8.17-4.936 14.257-10.315 19.66-4.947 4.968-11.581 8.348-18.959 9.658-1.618.287-5.789.505-6.997.366zm4.366-71.896c5.521-.5 10.772-1.635 14.562-3.145 2.107-.839 4.76-2.056 5.049-2.316.079-.07-1.386-5.563-1.903-7.138-.11-.333-.602-2.134-1.094-4.001s-1.364-5.141-1.938-7.276a3397 3397 0 0 1-6.265-23.646c-2.492-9.554-2.901-11.044-3.087-11.246-.309-.337-4.05 1.585-6.173 3.171-3.265 2.438-5.603 5.34-7.235 8.981-1.469 3.278-1.722 4.695-1.703 9.523.016 3.524.104 4.565.53 6.136 1.415 5.223 4.345 9.796 8.025 12.524 1.643 1.218 2.434 1.627 4.748 2.457l1.213.435-.906.382c-2.46 1.035-6.443 1.116-8.876.18-6.007-2.313-11.173-8.431-14.198-16.815-2.936-8.14-3.04-17.34-.278-24.828 2.055-5.575 6.426-11.1 11.345-14.344 2.343-1.545 7.555-4.203 8.24-4.203.185 0 .512-.136.728-.303.355-.275.293-.683-.678-4.426-.588-2.268-1.238-4.887-1.443-5.82s-.75-3.117-1.209-4.851a230 230 0 0 1-1.478-5.942c-.354-1.534-.718-2.928-.81-3.098-.108-.205-1.656 1.236-4.555 4.244l-5.445 5.645c-10.906 11.292-17.394 19.812-21.262 27.925-3.157 6.621-4.677 13.047-5.04 21.307-.473 10.756 2.501 21.66 7.74 28.375 5.64 7.228 13.017 10.899 24.544 12.212 1.655.19 6.246.138 8.852-.1zm27.397-11.362c7.941-7.992 11.616-19.05 10.08-30.339-1.133-8.335-5.613-15.118-11.854-17.947-3.769-1.71-7.614-2.23-11.786-1.596-2.308.351-5.35 1.063-5.35 1.252 0 .043.723 2.566 1.605 5.607.883 3.041 1.707 5.966 1.832 6.5.223.95 1.081 3.878 3.272 11.156.602 2 1.15 3.856 1.217 4.122.066.267.54 1.85 1.05 3.517s1.439 4.723 2.065 6.79c.627 2.068 1.615 5.287 2.196 7.155a446 446 0 0 1 1.572 5.15c.488 1.66.544 1.74 1.031 1.479.284-.152 1.665-1.433 3.07-2.846M657.11-17.935c4.95-5.365 7.596-8.646 10.743-13.318 2.67-3.964 4.337-7.163 5.737-11.006 1.268-3.48 1.577-6.408 1.398-13.247-.142-5.432-.507-7.369-1.971-10.46-1.456-3.072-3.468-4.677-6.997-5.581-4.726-1.21-8.808 1.55-11.832 8.004-3.694 7.883-5.514 21.893-4.243 32.653.467 3.95 1.92 13.25 2.462 15.75l.391 1.805 1.368-1.445c.752-.795 2.077-2.215 2.944-3.155" style="fill:#241c1c;fill-opacity:1;stroke:none;stroke-width:2;stroke-miterlimit:4;stroke-dasharray:none;stroke-opacity:1"/><path d="M577.187 44.342c-2.573-.259-5.717-1.472-7.743-2.988-3.62-2.708-5.921-7.675-5.782-12.475.2-6.865 5.024-14.352 11.928-18.512 2.292-1.381 4.133-1.988 7.111-2.344 2.83-.336 4.802-.234 6.443.338 1.466.512 3.51 1.822 4.612 2.956.414.426.848.793.965.816.152.03-.46-5.704-2.186-20.5-2.718-23.281-3.846-35.098-3.55-37.184.071-.5.548-.607 2.119-.473 6.797.581 13.437 8.3 18.499 21.506 1.434 3.741 2.137 6.46 2.875 11.113 1.146 7.23.762 13.84-1.015 17.469-.639 1.304-1.857 2.739-1.724 2.03.281-1.499.385-4.403.238-6.68-.387-5.99-2.106-12.564-5.003-19.135-3.689-8.365-7.637-16.54-8.467-17.535-.457-.546-.813-.424-.847.292-.034.695.706 14.832 1.058 20.228.127 1.95.459 7.791.737 12.98.277 5.19.649 11.66.825 14.38.708 10.916.792 13.263.554 15.335-.437 3.789-2.04 7.467-4.644 10.654-2.246 2.75-4.365 4.397-7.788 6.053-1.909.924-2.023.955-5.004 1.369-2.085.29-3.419.386-4.211.307" style="fill:#241c1c;stroke:none;stroke-width:2;stroke-miterlimit:4;stroke-dasharray:none;stroke-opacity:1;fill-opacity:1"/><path d="M527.528 125.614c-3.153-1.468-5.91-5.555-7.201-10.677-1.015-4.02-.934-11.063.172-15.159 1.697-6.277 5.781-12.398 9.564-14.332 1.426-.729 2.367-.943 4.09-.932 3.095.02 5.027 1.18 6.785 4.075.724 1.192 1.409 2.166 1.522 2.166.114 0 .092-12.871-.05-28.604l-.255-28.603-1.037-2.248c-1.452-3.145-2.903-5.145-5.85-8.063-4.763-4.717-11.814-9.144-17.765-11.155-3.985-1.347-6.06-1.658-7.395-1.105l-1.042.432-.205 4.753c-.11 2.614-.382 12.387-.6 21.717s-.543 20.374-.722 24.543c-.18 4.169-.331 10.734-.337 14.589-.014 6.358-.098 7.346-.952 10.647-1.703 6.591-5.522 13.582-9.391 17.19-2.798 2.61-4.787 3.412-8.456 3.412-2.795 0-3.315-.116-5.501-1.225-3.352-1.701-5.694-4.286-7.675-8.469-2.227-4.7-2.836-7.926-2.567-13.586.24-5.05.47-6.088 2.319-10.467 1.752-4.15 4.202-7.697 7.295-10.561 3.368-3.118 5.135-3.958 8.779-4.168 4.381-.254 6.484.357 8.815 2.562 1.063 1.006 2.36 2.612 2.88 3.569.522.957 1.049 1.74 1.171 1.74s.16-16.64.081-36.98-.029-37.742.11-38.673l.254-1.691 3.67.231c12.327.778 29.168 7.466 34.968 13.886 3.293 3.645 3.853 8.27 3.22 26.593-.611 17.701-.73 23.68-.986 49.809-.266 27.119-.307 27.56-3.227 34.666-3.824 9.306-8.783 12.77-14.481 10.118zm14.978-109.692.124-4.787-1.928-1.647c-2.865-2.446-7.668-5.47-11.706-7.369-5.262-2.475-13.04-4.866-16.604-5.105l-2.921-.195-.235 2.483A63 63 0 0 0 509 4.144v2.358l5.685 1.398c11.511 2.831 17.533 5.723 23.685 11.375 3.777 3.47 3.968 3.316 4.14-3.353z" style="fill:#241c1c;stroke:none;stroke-width:2;stroke-miterlimit:4;stroke-dasharray:none;stroke-opacity:1"/><path d="M533.871-30.853c-5.134.295-9.97-3.314-11.16-8.326-.616-2.6.148-6.703 1.8-9.661 2.369-4.247 5.845-7.087 9.859-8.056 2.944-.712 4.682-.507 6.948.817l1.792 1.048-.185-1.404c-.1-.773-1.928-9.067-4.061-18.432s-3.975-17.8-4.095-18.743l-.218-1.716 1.078-.207c3.502-.673 7.96 2.494 12.148 8.627 4.613 6.758 7.354 15.715 6.948 22.707-.088 1.524-1.44 4.48-1.454 3.183-.066-5.792-2.123-11.808-6.656-19.463-2.416-4.08-5.7-9.195-6.116-9.528-.98-.78-.945-.155.382 7.048.554 3.009 1.824 10.417 2.822 16.462.997 6.044 2.167 13.048 2.598 15.563.897 5.223.905 6.8.046 9.544-1.75 5.596-7.244 10.236-12.475 10.537z" style="fill:#241c1c;stroke:none;stroke-width:1;stroke-miterlimit:4;stroke-dasharray:none;stroke-opacity:1"/><path d="M484.789-89.4c-3.666-1.182-5.495-5.255-4.238-9.44.536-1.784.75-2.108 2.613-3.94 4.194-4.123 8.699-4.847 11.953-1.922l1.322 1.189.02-10.41c.02-10.47.244-17.772.554-18.083.323-.323 1.297.54 1.814 1.606.644 1.328.664 2.973.13 10.566a807 807 0 0 0-.66 10.451c-.663 12.148-.69 12.377-1.72 14.461-1.07 2.166-3.05 4.158-5.077 5.112-1.637.77-4.966.974-6.711.41z" style="fill:#fff;stroke:none;stroke-width:1;stroke-miterlimit:4;stroke-dasharray:none;stroke-opacity:1"/><path d="M336.972 199.227c-.062-12.282-.544-20.665-1.087-18.886-2.098 6.873-6.521 13.792-12.11 18.944-3.213 2.961-6.455 5.384-7.205 5.384-.749 0 .946-2.196 3.767-4.88 14.572-13.861 18.705-42.527 7.967-55.25-2.761-3.272-12.71-8.397-13.951-7.187-.178.174 1.946 2.7 4.72 5.615 19.837 20.853-7.853 49.676-39.02 40.616-12.923-3.757-21.613-10.7-32.966-26.338-2.267-3.123-2.284-3.069-1.793 5.811.33 5.984 1.456 10.844 3.385 14.62 6.455 12.642 22.732 23.676 41.02 27.806 5 1.13 8.9 2.246 8.663 2.483-.957.957-17.47-2.093-24.557-4.536-16.167-5.573-27.37-15.111-34.293-29.198-3.978-8.094-4.219-9.366-4.172-22.046.047-12.658.301-13.94 4.262-21.62 7.314-14.18 16.855-22.887 36.661-33.46 17.788-9.495 26.052-17.17 28.97-26.91 2.598-8.67-2.322-18.275-13.605-26.561l-3.841-2.821 3.92 1.304c19.892 6.618 25.416 36.037 9.24 49.213-3.84 3.127-3.925 3.341-.996 2.519 26.36-7.404 22.838-41.339-5.496-52.938l-6.668-2.73 6.402.751c21.456 2.518 38.33 13.714 41.61 27.612.715 3.03 1.06-.091 1.152-10.43l.13-14.752-10.224-2.114C298.94 33.474 278.163 15.03 272.57-8.95l-1.841-7.891h4.435c7.473 0 22.43 3.915 31.122 8.145 10.415 5.07 21.596 15.867 26.72 25.802l3.954 7.666.062-13.066.062-13.066-4.802-.824c-21.009-3.607-43.495-17.106-54.872-32.94-5.313-7.396-10.92-18.274-14.003-27.171-2.824-8.149-3.98-32.26-2-41.716 3.508-16.75 12.399-32.982 24.49-44.711 10.443-10.132 19.578-15.743 33.546-20.605 9.418-3.278 12.338-3.69 26.217-3.706 26.711-.036 43.222 6.785 61.846 25.524 17.636 17.746 24.927 35.367 24.927 60.246 0 24.73-7.251 42.248-24.927 60.218-8.802 8.948-12.965 12.088-21.767 16.419-10.283 5.06-24.518 9.078-32.33 9.128l-3.522.036v212.013l-5.49 5.388c-3.02 2.963-5.9 5.388-6.402 5.388s-.961-9.94-1.021-22.087zm-32.275-27.216c7.131-2.117 15.74-10.169 15.74-14.72 0-2.963-1.955-3.422-2.998-.704-.391 1.02-2.54 2.8-4.774 3.955-11.093 5.736-24.197-7.06-20.014-19.542 5.345-15.949 32.808-13.822 41.819 3.24l2.499 4.732-.076-35.211c-.04-19.366-.495-33.483-1.01-31.37-2.767 11.368-11.886 21.004-35.189 37.185-25.826 17.933-30.194 22.711-30.194 33.027 0 16.791 14.774 25.176 34.196 19.408zm-34.32-7.23c-4.129-8.027-3.839-17.405.754-24.346 4.811-7.27 7.412-9.562 29.489-25.986 24.69-18.367 30.121-25.168 30.002-37.56-.036-3.312-.849-7.75-1.816-9.863l-1.759-3.84-.13 5.12c-.277 10.649-8.31 21.719-22.226 30.62-3.683 2.357-13.594 7.667-22.024 11.8-16.76 8.219-22.9 13.317-27.513 22.849-6.904 14.26-2.807 27.868 10.368 34.433 3.692 1.84 6.94 3.119 7.217 2.842.276-.276-.785-3.008-2.36-6.07zm62.757-129.582c-9.435-8.088-55.09-45.637-55.488-45.637-1.036 0 1.426 6.994 4.823 13.696 6.7 13.221 21.8 24.59 39.67 29.87 7.454 2.2 12.187 3.093 10.995 2.07zm19-49.258c1.107-.703.188-1.696-2.957-3.196l-4.564-2.177.272-29.434c.152-16.188.76-29.433 1.356-29.433s1.091 1.008 1.102 2.24c0 1.233 2.797 15.205 6.192 31.05 4.731 22.088 6.647 28.902 8.213 29.206 2.116.411 18.58-5.626 20.723-7.6.712-.655-.949-1.12-4.005-1.12-2.871 0-5.771-.72-6.444-1.6-1.388-1.815-23.418-52.721-23.418-54.113 0-.85 31.44 42.006 36.411 49.632 1.263 1.936 2.859 3.52 3.547 3.52 1.61 0 18.19-16.541 17.386-17.346-.334-.334-3.077.265-6.096 1.33l-5.49 1.937-13.552-12.486c-7.454-6.868-17.606-16.366-22.56-21.106l-9.006-8.62 30.09 17.2 30.09 17.2 2.387-4.646c2.599-5.057 7.215-17.864 7.215-20.017 0-.737-2.262.87-5.027 3.57l-5.028 4.908-28.345-9.45c-15.59-5.198-27.528-9.621-26.53-9.829 1-.207 15.224 1.089 31.61 2.88 16.387 1.793 30.96 3.26 32.385 3.26 2.474 0 2.558-.563 1.856-12.327-.404-6.78-1.239-12.831-1.855-13.447-.639-.639-2.066 1.513-3.325 5.014l-2.205 6.133-29.614 2.85c-16.288 1.567-29.814 2.649-30.06 2.404-.243-.247 13.987-5.187 31.627-10.981 30.446-10 32.028-10.677 31.204-13.336-1.572-5.072-7.968-17.007-10.033-18.72-1.803-1.497-2.027-.928-2.048 5.198l-.036 6.88-25.865 14.084c-14.227 7.746-26.46 14.315-27.186 14.599-.726.283 1.83-2.31 5.679-5.762s15.563-13.98 26.03-23.395l19.033-17.118-4.264-4.4c-4.05-4.18-15.023-11.94-16.882-11.94-.478 0 .523 2.748 2.224 6.105l3.094 6.105-17.017 22.82c-9.36 12.552-17.674 23.479-18.478 24.282-.803.804 2.213-6.883 6.702-17.081 4.49-10.199 10.66-24.207 13.714-31.13 4.601-10.436 5.238-12.79 3.722-13.776-2.442-1.587-13.39-4.614-19.755-5.462l-5.122-.682 5.372 4.841 5.371 4.842-6.652 29.978-6.652 29.977-.34-34.902-.342-34.903-5.421.736c-7.119.967-17.906 3.282-19.443 4.173-.67.389 1.579 1.609 4.997 2.712l6.217 2.006 5.93 29.75c3.262 16.363 5.547 29.327 5.077 28.81-.47-.519-6.81-14.338-14.092-30.712-7.28-16.373-13.839-29.769-14.573-29.769-1.41 0-11.903 6.994-17.306 11.535l-3.2 2.691 6.401-.743 6.402-.743 11.524 16.29c21.667 30.628 24.167 34.348 21.688 32.274-1.366-1.142-12.854-11.395-25.53-22.785l-23.047-20.709-3.361 3.98c-3.523 4.17-10.711 16.622-9.596 16.622.356 0 2.585-1.143 4.954-2.54l4.306-2.541 25.971 15.246c14.285 8.386 26.3 15.576 26.703 15.978s-1.81-.113-4.917-1.142c-16.352-5.42-58.09-18.599-58.906-18.599-1.26 0-3.721 11.713-3.713 17.669v4.738l3.038-3.797 3.038-3.798 25.777 3.002c37.816 4.403 37.763 4.34 6.546 7.65-42.482 4.503-38.67 3.662-37.754 8.329 2.648 13.495 7.024 21.557 7.024 12.942 0-1.678.72-3.506 1.601-4.063 1.97-1.246 56.405-18.384 56.88-17.908.19.19-12.054 7.467-27.206 16.175-15.153 8.708-27.857 16.33-28.232 16.936-.83 1.343 2.535 6.713 8.24 13.152 4.85 5.474 5.804 5.397 4.16-.338-1.152-4.015-1.017-4.169 19.547-22.231 11.39-10.003 21.817-19.093 23.172-20.2 2.966-2.422-.236 2.291-20.817 30.64-9.84 13.554-14.93 21.622-14.2 22.51 1.433 1.744 12.327 7.62 16.442 8.868l3.095.94-2.775-3.528c-1.526-1.94-2.775-3.998-2.775-4.572 0-1.387 24.614-55.09 25.048-54.65.185.189-2.736 14.744-6.491 32.347-3.756 17.603-6.643 32.191-6.416 32.419.633.633 12.347 2.48 16.668 2.627 2.113.073 4.565-.327 5.449-.89zm41.926 215.707c-14.774-4.842-25.444-13.598-30.617-25.126-2.815-6.274-3.463-9.677-3.593-18.883-.236-16.734 2.28-20.488 16.225-24.202 8.561-2.28 12.833-2.189 18.263.388 9.412 4.466 12.588 18.114 6.03 25.909-4.231 5.028-12.017 7.542-16.72 5.399-4.682-2.133-5.181-.938-.865 2.069 12.49 8.702 32.598 6.783 40.552-3.87 3.467-4.645 3.403-13.986-.142-20.762-3.906-7.465-14.548-17.169-29.132-26.565-21.428-13.806-31.8-27.632-31.938-42.577-.091-9.878 3.205-16.356 11.56-22.715 6.463-4.919 18.204-10.22 26.14-11.801 3.286-.655 1.772.491-5.676 4.297-35.737 18.26-32.738 44.84 6.136 54.405 12.081 2.973 20.512 7.525 29.088 15.705 13.471 12.85 19.43 29.548 16.553 46.386-.796 4.66-2.28 9.913-3.298 11.674l-1.851 3.2.97-3.84c.535-2.113.971-9.027.971-15.365 0-10.33-.428-12.429-4.133-20.25-4.685-9.891-14.479-20.304-24.218-25.747-7.157-4-22.006-9.065-23.169-7.903-.92.92-.75 1.065 15.501 13.28 19.116 14.37 28.977 29.373 28.977 44.09 0 11.028-4.962 19.276-14.724 24.473-3.893 2.073-7.426 2.734-14.725 2.756-11.25.036-17.826-2.743-26.568-11.227l-5.442-5.28v3.703c0 5.486 4.714 14.232 10.038 18.624 7.915 6.528 17.093 9.222 29.654 8.704 21.675-.895 36.943-12.921 44.409-34.98l1.733-5.122-.705 5.608c-1.692 13.447-12.064 26.703-26.006 33.24-6.224 2.917-9.195 3.447-20.711 3.694-8.402.182-15.365-.34-18.566-1.389zm2.032-40.873c5.111-3.925 6.486-12.279 3.097-18.831-2.64-5.107-6.796-7.713-12.136-7.61-4.043.076-4.23.225-1.782 1.41 5.59 2.707 7.615 14.197 3.206 18.187-1.31 1.186-4.91 2.602-8.002 3.149l-5.62.993 3.84 2.12c4.503 2.485 14.483 2.819 17.397.582zm53.786-35.801c-6.304-13.806-24.285-27.363-42.547-32.078-25.696-6.634-33.561-21.936-20.132-39.167 3.256-4.178 2.984-2.7-.821 4.457-7.936 14.925-1.584 23.244 23.87 31.263 13.177 4.151 20.348 8.385 29.614 17.484 5.923 5.816 14.482 20.598 13.548 23.399-.25.755-1.841-1.656-3.532-5.358zM360.461 33.2C361.8 18.412 374.936.713 390.872-7.78c13.436-7.161 37.118-11.69 37.118-7.098 0 3.878-5.396 18.005-9.098 23.816-5.446 8.549-16.145 18.17-25.402 22.843-8.134 4.106-24.74 8.998-30.542 8.998-3.099 0-3.158-.182-2.487-7.578zm20.155-1.451c16.923-5.554 30.654-17.06 37.297-31.256 2.145-4.584 3.702-8.933 3.458-9.663s-11.11 7.473-24.146 18.229c-13.038 10.755-25.277 20.79-27.2 22.3-6.402 5.03-3.838 5.124 10.59.39z" style="fill:#fbba1e;fill-opacity:1;stroke:#1a1a1a;stroke-width:5;stroke-miterlimit:4;stroke-dasharray:none;stroke-opacity:0"/><path d="M213.507 157.396c3.214-1.003 3.566-1.464 4.105-5.384.6-4.365-.767-11.228-3.145-15.791-2.74-5.257-5.003-13.35-6.524-23.327-1.445-9.486-1.831-11.128-4.451-18.914l-1.939-5.761 2.436-9.569 2.435-9.568 2.796-.392c1.538-.215 3.124-.806 3.526-1.312.525-.663 1.03-.751 1.807-.317.648.363 1.821.391 2.938.07 2.013-.577 4.755-.146 4.755.746 0 .985 2.507.585 2.91-.464.358-.936.448-.937 1.124 0 .677.926.936.926 3.31 0 1.417-.556 2.576-1.278 2.576-1.604s.422-.43.937-.232c1.511.58 4.149-.918 3.821-2.17-.22-.842.156-1.13 1.664-1.277l1.948-.19-.166-5.58c-.09-3.07-.164-6.685-.159-8.035 0-1.53-.694-3.801-1.854-6.03-1.023-1.966-3.791-8.585-6.152-14.709-2.36-6.124-4.62-11.781-5.023-12.57-.403-.79-2.966-3.707-5.697-6.483l-4.964-5.046.279-6.424c.303-6.99 1.167-10.101 5.533-19.933 1.394-3.14 3.55-8.147 4.79-11.124s2.423-5.35 2.63-5.27c.208.078 4.233 4.19 8.944 9.134 9.31 9.77 16.05 15.053 26.144 20.495l5.934 3.198 2.325-1.306c1.279-.72 2.807-1.307 3.397-1.307 1.17 0 5.944-2.435 6.621-3.377.817-1.136-.736-2.823-2.599-2.823-1.7 0-1.822-.159-1.797-2.325.049-4.227-.709-6.975-1.923-6.975-.642 0-1.384.72-1.758 1.705-.356.937-1.472 2.672-2.48 3.855l-1.833 2.15-5.94-4.63c-3.267-2.547-7.688-5.816-9.826-7.265-3.207-2.176-4.46-3.582-7.178-8.06-1.81-2.984-4.375-6.816-5.7-8.515-2.127-2.731-2.303-3.205-1.513-4.078.492-.543 1.024-2.67 1.184-4.725.272-3.496.193-3.781-1.23-4.43-1.357-.618-1.484-.976-1.192-3.344.535-4.348-.28-5.976-3.973-7.93-2.39-1.263-4.604-1.849-8.197-2.167-2.708-.239-5.087-.701-5.288-1.026-.688-1.113.406-3.662 1.854-4.322 1.178-.536 2-.364 4.424.925 3.146 1.675 3.65 1.614 5.454-.659.621-.783 1.496-1.424 1.943-1.424.446 0 .991-.488 1.21-1.085.997-2.721 2.387-4.495 3.52-4.495 1.707 0 2.065-1.386 1.324-5.134-.504-2.545-.451-3.58.25-4.934.487-.943 1.06-4.375 1.274-7.625.387-5.882.38-5.92-1.38-7.756-2.66-2.778-8.942-6.65-11.834-7.295-1.795-.4-3.252-1.335-4.866-3.122-1.882-2.082-2.514-2.44-3.442-1.942-.626.335-2.254.608-3.618.608-3.8 0-5.573.957-10.126 5.462-4.517 4.469-4.988 5.789-2.975 8.347.682.868 1.24 1.965 1.24 2.44s.315 1.179.701 1.565c.517.516.525 1.891.027 5.235-.559 3.766-.518 4.77.237 5.925.806 1.23.79 1.868-.134 5.554-1.7 6.763-3.489 8.092-16.187 12.016-3.16.976-6.926 2.45-8.37 3.275s-3.508 1.513-4.588 1.528c-1.08.025-2.788.454-3.796.975-1.009.522-2.01.772-2.225.557s-1.018.19-1.783.901c-.766.71-2.09 1.385-2.943 1.5-1.242.17-1.589.61-1.744 2.225-.12 1.248-.534 2.015-1.085 2.015-1.568 0-.954 1.882.97 2.974 1.023.58 1.733 1.396 1.576 1.813-.156.416.122 1.164.62 1.66.496.498.903 1.18.903 1.517s.284.707.63.823c.654.217-13.588 15.398-14.445 15.395-.266 0-4.172 1.43-8.68 3.181-15.42 5.99-23.002 8.597-25.005 8.597-1.365 0-2.859-.692-4.686-2.168-1.476-1.193-4.135-3.146-5.909-4.34-2.978-2.006-3.583-2.172-7.905-2.172-3.696 0-4.68.19-4.68.908 0 .5-.566 1.211-1.259 1.582l-1.26.674 1.302 1.828c.813 1.141 1.852 1.828 2.768 1.828.914 0 1.612.46 1.854 1.221.27.85 1.597 1.585 4.364 2.415 2.407.722 5.422 2.279 7.637 3.944l3.66 2.752 7.982-.859c11.122-1.196 32.572-6.706 37.516-9.637 3.9-2.312 9.09-6.894 13.862-12.236 2.284-2.558 4.366-4.73 4.628-4.829.262-.097 1.318.781 2.348 1.953 1.543 1.757 2.008 3.05 2.65 7.366.428 2.88.646 7.517.485 10.307-.257 4.435-.501 5.29-1.945 6.797-.909.948-1.652 2.336-1.652 3.085 0 .796-.386 1.36-.93 1.36-.511 0-.93.54-.93 1.2 0 .664-.568 1.377-1.278 1.603-.703.222-1.56 1.023-1.904 1.779-.58 1.275-1.391 1.449-11.277 2.422-5.858.577-14.39 1.748-18.962 2.603-4.57.854-8.425 1.554-8.566 1.554s-.088.525.114 1.168c.759 2.39-.96 4.398-5.593 6.539-5.825 2.691-11.408 6.518-13.488 9.245-1.836 2.408-2.242 5.368-.736 5.368 1.1 0 1.145.299.29 1.896-.496.927-.252 2.028 1.085 4.898 1.545 3.314 1.921 3.704 3.604 3.723 1.51.025 2.017.389 2.581 1.882.453 1.2 1.136 1.86 1.924 1.86.686 0 1.359.526 1.535 1.2.227.867.677 1.105 1.622.858.954-.25 1.309-.056 1.309.716 0 1.5 2.483 3.381 4.495 3.406 1.23.025 1.705.336 1.705 1.152 0 1.365 2.313 3.619 4.03 3.928.718.13 1.323.803 1.436 1.6.232 1.621 3.09 4.06 4.24 3.62.44-.17 1.054.143 1.362.694.494.883 1.085.732 4.944-1.265 5.164-2.672 5.688-2.745 5.688-.791 0 1.834 2.277 2.618 3.746 1.289 1.461-1.323 1.834-1.129 1.834.953q0 1.86.93 1.86c.511 0 .93.419.93.93s.537.93 1.195.93c.657 0 1.734.686 2.394 1.524.659.838 1.906 1.847 2.771 2.241 2.232 1.017 7.84 12.89 7.992 16.92.127 3.382-1.033 4.87-8.462 10.844-2.387 1.92-6.317 5.367-8.733 7.662-4.417 4.195-13.29 15.984-16.521 21.948-1.44 2.66-2.1 3.275-3.864 3.606-1.35.253-2.959.05-4.405-.553-2.934-1.226-3.544-1.2-5.307.23-1.389 1.123-1.45 1.495-1.282 7.782l.175 6.602-5.916 6.107c-3.255 3.359-5.917 6.536-5.917 7.062 0 1.263 2.38 2.886 4.231 2.886.812 0 3.75-1.066 6.527-2.368 5.953-2.791 10.544-6.811 18.536-16.232 6.61-7.793 8.893-9.937 19.263-18.097 4.372-3.439 9.433-7.61 11.247-9.268s3.539-3.014 3.832-3.012c.294 0 1.63 3.002 2.972 6.665 2.51 6.858 5.959 13.234 12.194 22.544 3.078 4.596 3.714 6.056 4.548 10.454.533 2.81.97 5.32.97 5.575s-.975 1.689-2.165 3.186c-3.171 3.99-2.791 7.224 1.004 8.547 2.513.876 4.514.814 7.92-.249z" style="fill:#010101;fill-opacity:1;stroke-width:.61999619"/><path d="M74.911 26.608c-130.446 266.155 53.128 263.887 120.345 147.44 10.119-17.53 23.1-35.262 27.972-56.775-40.094-3.206-102.713-28.869-148.317-90.665" style="fill:#262626;fill-opacity:1;stroke:none;stroke-width:.16166617px;stroke-linecap:butt;stroke-linejoin:miter;stroke-opacity:1"/><path d="M-2.575-71.426C-36.584 29.94-22.42 94.824 7.723 122.319c46.62 42.524 132.267-5.83 143.285-158.179C97.888-15.676 46.193-31.56-2.575-71.426" style="fill:#e6d9ae;fill-opacity:1;stroke:none;stroke-width:.16166617px;stroke-linecap:butt;stroke-linejoin:miter;stroke-opacity:1"/><path d="M81.807 248.746c-.634-.283-2.105-.534-3.269-.556-2.765-.053-8.606-1.537-12.59-3.199-1.743-.727-4.274-1.654-5.622-2.058s-2.453-.888-2.457-1.075c-.01-.187-.977-.805-2.163-1.373s-3.034-1.8-4.108-2.74c-1.074-.938-2.112-1.706-2.306-1.707-.828 0-7.465-6.986-8.313-8.745-.51-1.057-1.522-2.583-2.25-3.392-1.675-1.858-2.767-3.757-2.767-4.81 0-.45-.507-1.817-1.127-3.036-1.858-3.655-4.51-12.308-5.193-16.941-.876-5.936-.95-34.002-.096-35.599.868-1.622.825-5.039-.071-5.779-.397-.327-3.576-.72-7.065-.872-8.392-.367-13.303-1.666-19.535-5.168-4.454-2.503-7.278-2.049-11.755 1.892-1.434 1.262-2.835 2.295-3.114 2.295s-1.605.705-2.946 1.566-3.348 2.063-4.458 2.668c-1.11.606-2.927 1.812-4.037 2.682s-3.074 2.115-4.363 2.768-2.684 1.596-3.099 2.095c-.414.5-.98.907-1.258.907s-1.575 1.038-2.882 2.307-2.602 2.307-2.878 2.307c-.615 0-2.372 1.377-5.15 4.036-1.16 1.11-2.752 2.538-3.54 3.172-.787.634-2.06 2.05-2.827 3.145s-2.108 2.61-2.98 3.367c-.873.756-1.586 1.742-1.586 2.19 0 1.087 2.907 1.065 4.359-.034.615-.465 1.817-.855 2.671-.865s1.712-.278 1.908-.595.741-.576 1.21-.576c.711 0 3.8-1.839 4.845-2.884.159-.158 2.287-1.297 4.73-2.53 3.571-1.803 5.154-3.067 8.074-6.45 1.997-2.315 3.841-4.225 4.097-4.246.257-.02 1.425-.797 2.595-1.725 2.392-1.897 8.313-5.232 9.289-5.232.35 0 1.738-.488 3.082-1.085 4.082-1.812 5.83-2.392 7.931-2.632 1.106-.126 3.48-.414 5.274-.638 3.64-.456 9.934.505 11.67 1.782 1.057.778 1.042.869-.463 2.842-.855 1.12-1.8 2.038-2.1 2.038s-1.617 1.038-2.924 2.306c-1.308 1.269-2.616 2.307-2.909 2.307s-.845.268-1.228.596-1.164.919-1.737 1.313C4.87 173.822 5.7 175.294 8 175.667c4.565.74 7.865 3.465 5.723 4.724-.539.317-1.583 1.16-2.319 1.874s-1.444 1.298-1.573 1.298c-.13 0-2.058 1.002-4.286 2.227-2.229 1.225-4.665 2.377-5.415 2.561-9.838 2.417-13.166 2.631-20.136 1.298-4.555-.872-9.355-2.27-11.06-3.221-2.141-1.194-5.753-.598-10.6 1.748-2.622 1.269-5.252 2.307-5.846 2.307-.593 0-2.1.491-3.35 1.092-1.248.6-3.391 1.425-4.762 1.833-2.79.83-6.447 3.855-6.447 5.333 0 .533-.228.968-.506.968-.279 0-.83.779-1.224 1.73-.394.952-.944 1.73-1.223 1.73s-.507.272-.507.603c0 .332-1.248 2.473-2.774 4.758-1.525 2.285-3.23 5.138-3.786 6.34-1.368 2.954-4.13 6.005-6.332 6.996-6.013 2.706-7.683 3.217-10.503 3.217-2.498 0-3.23-.233-3.948-1.26-1.601-2.286-.755-3.884 6.163-11.633 1.658-1.858 3.255-3.804 3.548-4.325s1.282-1.596 2.198-2.389a51 51 0 0 0 3.216-3.103c.853-.914 3.237-3.407 5.298-5.54s5.448-5.667 7.525-7.854c2.077-2.186 4.349-4.357 5.048-4.824.7-.467 1.398-1.246 1.553-1.73s1.257-1.945 2.45-3.247c5.391-5.888 10.528-14.197 10.528-17.032 0-1.365-.243-1.65-1.408-1.65-.774 0-1.568.26-1.764.577s-1.204.576-2.24.576c-2.759 0-4.392-1.978-4.392-5.32 0-2.27.263-2.872 1.835-4.195 2.957-2.488 6.328-1.305 7.647 2.684.336 1.013.875 1.93 1.199 2.035.835.271 1.997-5.064 1.364-6.267-.281-.534-.511-1.856-.511-2.939s-.404-2.778-.899-3.768c-.494-.99-1.053-2.782-1.242-3.981-.19-1.2-.5-2.31-.69-2.469-.574-.477-1.783-4.318-1.783-5.663 0-.691-.229-1.257-.509-1.257s-.644-.584-.809-1.297c-.164-.714-.89-3.244-1.612-5.623-1.137-3.745-1.306-5.523-1.264-13.263.051-9.312 1.435-18.416 2.871-18.883.805-.262 4.007 4.607 4.508 6.857.382 1.709 2.236 3.658 3.02 3.173.282-.174.865-1.432 1.298-2.796.432-1.364 1.22-3.128 1.752-3.921.53-.793 1.297-2.48 1.702-3.749.405-1.268 1.22-2.995 1.81-3.837s1.073-1.815 1.073-2.162c0-.348.242-.632.538-.632s.702-.515.901-1.145c.622-1.96 5.49-7.505 6.588-7.505.805 0 1.133.625 1.436 2.739.877 6.119 1.351 18.559.873 22.922-.277 2.538-.659 6.041-.847 7.785-.188 1.745-.554 3.691-.813 4.325s-.79 2.322-1.179 3.749c-.39 1.427-.911 3.114-1.16 3.748s-1.155 3.23-2.016 5.767-2.748 7.078-4.192 10.092c-1.445 3.013-2.808 5.997-3.028 6.631-3.415 9.83-1.559 10.394 4.744 1.442 1.005-1.427 2-2.725 2.212-2.883.677-.509 1.537-2.54 1.912-4.516.2-1.056.722-2.742 1.16-3.748.437-1.005 1.142-2.996 1.565-4.423s1.523-4.022 2.444-5.767c.92-1.744 2.086-3.947 2.588-4.896 2.403-4.535 7.257-9.96 11.236-12.561 1.596-1.043 2.156-3.606 1.043-4.773-1.023-1.073-2.934-4.923-4.776-9.62-1.029-2.623-2.074-4.855-2.323-4.96-.248-.106-.452-.95-.452-1.875s-.26-1.682-.577-1.682-.576-.633-.576-1.407-.26-1.568-.577-1.764-.577-1.167-.577-2.158-.506-3.247-1.124-5.012c-3.476-9.926-5.41-35.193-4.117-53.81.38-5.473.923-11.118 1.206-12.546.284-1.427.814-4.8 1.178-7.496.363-2.696.882-5.68 1.151-6.632.27-.951.778-3.676 1.13-6.055 1.035-7.001 4.9-24.325 5.82-26.086.288-.551.534-1.59.548-2.307.014-.718.428-2.343.92-3.612s1.114-3.474 1.381-4.902c.82-4.38 1.202-6.007 1.688-7.208.257-.634.79-2.321 1.185-3.748.394-1.428 1.073-3.413 1.507-4.413.435-1 .79-2.106.79-2.46 0-.352.792-2.045 1.76-3.76 1.641-2.907 4.403-5.631 8.2-8.088 2.876-1.861 12.403-3.293 15.078-2.266 1.072.41 1.15 1.792.285 5.061-.345 1.306-.973 3.671-1.395 5.257s-.763 3.273-.758 3.749c.01.475-.419 3.029-.943 5.674-1.16 5.849-.847 6.556 4.133 9.35 6.89 3.868 16.367 8.619 17.19 8.619.47 0 .854.26.854.577s.355.576.788.576c.912 0 6.856 2.366 7.285 2.899.16.197 1.586.704 3.172 1.126s3.143.94 3.46 1.15c.932.62 4.922 1.69 17.012 4.565 11.305 2.687 13.833 3.147 22.49 4.088 13.973 1.519 24.855 1.165 37.772-1.228 6.048-1.12 13.09-2.922 15.57-3.983.634-.272 1.802-.57 2.595-.663l1.441-.169-.124 7.497c-.068 4.123-.392 9.378-.72 11.678-.329 2.299-.844 5.932-1.146 8.073s-.804 4.914-1.117 6.164-.543 2.416-.513 2.595c.03.178-.094.713-.277 1.188-.183.476-.483 1.903-.666 3.172-.356 2.462-1.048 5.886-2.041 10.092a88 88 0 0 0-.952 4.613c-.186 1.11-.72 2.873-1.187 3.917s-1.045 3.12-1.284 4.613-.847 3.623-1.35 4.734-1.04 2.667-1.193 3.46c-.152.792-.982 3.347-1.844 5.675-1.852 5.002-1.554 5.742 1.952 4.852 1.771-.45 2.676-.4 3.85.21 1.74.902 4.063 1.048 4.535.285.173-.28.47-3.2.657-6.487.334-5.825 1.108-9.252 2.852-12.625.471-.911.865-2.124.875-2.694.01-.571.788-2.589 1.73-4.483.941-1.895 1.712-3.907 1.712-4.47s.195-1.024.432-1.025c.238 0 1.162-1.154 2.053-2.565 1.838-2.909 5.388-6.246 6.316-5.937.34.113 1.16 2.917 1.82 6.229 1.159 5.812 1.25 6.017 2.642 5.862.793-.09 1.528-.413 1.634-.721s.495-.56.865-.56c.37-.001 1.451-.679 2.403-1.507a82 82 0 0 1 3.748-3.023c1.11-.835 2.148-1.65 2.307-1.81 1.266-1.28 5.271-4.042 5.877-4.053.415-.01 1.403-.52 2.196-1.14 1.688-1.32 3.46-1.498 3.46-.347 0 1.199-5.094 11.66-6.074 12.473-.465.386-.848 1.124-.852 1.64-.01.783-3.043 5.27-5.907 8.726-.395.477-1.606 2.034-2.691 3.46s-2.825 3.501-3.866 4.611c-5.37 5.723-7.105 7.884-7.12 8.868-.015.969.302 1.044 3.011.72 8.16-.979 12.66-1.083 14.892-.347 2.107.695 2.432.655 3.986-.493.93-.688 1.98-1.251 2.333-1.251.863 0 2.288-1.475 2.288-2.369 0-1.378 4.325-4.795 8.895-7.03 1.245-.607 3.72-2.57 5.502-4.359s4.396-4.152 5.81-5.25c1.415-1.097 3.578-3.107 4.807-4.466 1.858-2.055 2.114-2.617 1.515-3.339-.396-.477-1.431-.867-2.3-.867-2.39 0-4.622-2.532-4.622-5.242 0-4.258 1.94-6.292 6.004-6.292 1.053 0 2.574.52 3.38 1.154 3.07 2.414 3.354 1.798 3.589-7.791.137-5.61.442-8.252 1.105-9.581.503-1.01.915-2.54.915-3.4s.49-2.832 1.087-4.38c.598-1.55 1.685-4.713 2.415-7.03s1.54-4.344 1.797-4.504.468-.735.468-1.281.52-1.366 1.153-1.823c.635-.458 1.154-1.17 1.154-1.585 0-1.324 3.576-4.759 4.955-4.759 1.536 0 1.698.432 2.541 6.775.433 3.26.449 5.42.049 6.866-.32 1.16-.445 2.331-.278 2.602.598.968-2.109 12.454-3.883 16.477-.593 1.344-1.084 2.642-1.09 2.883-.01.242-.521 1.088-1.141 1.88-.62.794-1.134 2.19-1.14 3.104-.013 1.579.086 1.645 2.01 1.333 1.114-.181 2.413-.717 2.887-1.191s1.38-1.027 2.013-1.228c.632-.2 1.15-.607 1.15-.903s.284-.538.632-.538c1.652 0 3.896-2.403 4.261-4.563.21-1.238.742-2.728 1.185-3.313.443-.584.814-1.451.825-1.927.028-1.21 5.597-12.582 6.705-13.69.5-.501 1.547-1.92 2.326-3.153 2.79-4.42 7.955-8.187 13.82-11.471 1.906-1.067 2.34-1.107 4.614-.427 1.89.566 2.481 1.018 2.394 1.831-.467 4.319.438 4.525-.772 7.16-3.582 7.8-4.504 9.603-5.366 10.487-.956.983-1.57 1.799-4.972 6.62-1.1 1.559-2.91 3.818-4.023 5.02s-2.023 2.312-2.023 2.466 1.103.36 2.451.458c1.716.124 2.451.437 2.451 1.042 0 .696-1.242.933-6.343 1.21-3.489.189-7.664.628-9.278.976-3.366.726-7.734 2.377-7.734 2.924 0 .204-1.233 1.001-2.74 1.772-3.804 1.947-6.571 4.048-6.175 4.69.48.777 3.769.656 5.455-.201 3.636-1.848 15.907-5.257 23.329-6.481.937-.155 1.962-.54 2.278-.855.315-.316 1-.575 1.522-.575s1.419-.519 1.993-1.153c1.247-1.378 1.782-1.447 2.227-.288.455 1.185-.161 2.595-1.134 2.595-.441 0-2.424.754-4.407 1.676s-5.552 1.988-7.931 2.368-5.752 1.078-7.497 1.55c-1.744.474-4.08 1.06-5.19 1.304-2.516.553-8.094 2.78-9.145 3.654-.638.53-.522.723.617 1.028 1.992.533 11.794-.382 14.876-1.388 1.425-.465 3.954-1.158 5.62-1.54s3.173-.928 3.35-1.214c.176-.285.734-.518 1.24-.518s1.878-1.038 3.049-2.307c2.058-2.23 3.46-2.929 3.46-1.726 0 .32-.71 1.163-1.58 1.874-.868.712-2.36 2.074-3.315 3.027-2.433 2.428-4.196 3.439-7.36 4.221-1.506.373-3.841.946-5.19 1.274-1.347.329-6.602.7-11.677.827s-9.81.408-10.524.624c-1.542.468-1.71 1.867-.29 2.412 2.012.772 3.606 2.943 3.587 4.885-.055 5.708-8.828 7.86-10.969 2.69-.81-1.956-2.357-2.15-4.006-.501-.634.634-1.313 1.153-1.508 1.153-.649 0-4.258 4.25-4.258 5.015 0 .911 1.895.968 4.617.137 1.108-.338 3.96-.712 6.34-.83 2.378-.12 4.815-.297 5.416-.395 1.848-.302 1.65 1.025-.49 3.294-1.124 1.192-2.043 2.468-2.043 2.835s-1.038 1.68-2.307 2.92c-2.342 2.286-2.921 3.965-1.55 4.491.97.372 3.857-.168 3.857-.722 0-.404 7.095-2.124 13.973-3.386 3.725-.684 17.774.175 18.36 1.122.658 1.064-.021 6.454-1.11 8.806-.603 1.306-1.238 2.797-1.41 3.312s-1.176 1.107-2.232 1.316c-1.056.208-3.477.681-5.38 1.051-6.734 1.31-19.95.749-30.275-1.284-5.83-1.149-11.427-1.635-13.363-1.161-1.055.258-4.903 1.387-8.55 2.509s-7.735 2.325-9.083 2.674c-1.85.479-2.45.916-2.45 1.781 0 1.089.346 1.14 6.775.998 3.92-.086 7.506.12 8.506.49.952.35 3.158.966 4.902 1.368 1.744.401 4.729 1.435 6.632 2.297s5.146 2.155 7.208 2.874c6.59 2.298 6.676 2.742 1.01 5.18-1.853.797-10.285 2.792-13.734 3.25-1.607.213-3.297.761-3.754 1.22-.725.724-.703 1.05.177 2.54.87 1.474.894 1.778.167 2.227-2.542 1.57-16.55 1.352-22.515-.353-1.738-.496-3.933-1.046-4.88-1.22-.945-.176-2.575-.8-3.621-1.387-1.046-.588-2.218-1.074-2.605-1.081-.387-.01-1.352-.52-2.145-1.141-.793-.62-1.972-1.133-2.62-1.14-1.382-.016-6.03 4.507-6.03 5.868 0 .991 2.36 3.208 5.208 4.89 2.552 1.507 2.242 2.883-.74 3.273-6.035.788-10.067 1.42-11.532 1.808-3.32.878-2.192 1.755 10.638 8.265 10.975 5.568 15.953 7.69 23.24 9.904 1.904.578 5.078 1.581 7.055 2.23 4.78 1.566 10.305 2.536 11.784 2.067 1.248-.397 3.493-2.53 6.694-6.36 4.396-5.26 5.745-6.844 8.233-9.665 1.444-1.636 3.082-3.704 3.64-4.596.685-1.093 1.409-1.563 2.221-1.442.98.146 1.46 1.093 2.574 5.081 1.12 4.013 1.376 6.343 1.412 12.845.025 4.507-.205 8.249-.532 8.65-.316.389-.903 1.81-1.303 3.158s-.946 2.45-1.213 2.45-.484.325-.483.722c.01 1.597-4.513 11.913-7.39 16.867-.369.635-1.307 2.58-2.085 4.325-1.752 3.925-4.51 8.873-5.088 9.13-.238.106-.433.669-.433 1.25 0 .582-.195 1.144-.432 1.25-.238.105-1.052 1.36-1.808 2.787-4.845 9.145-6.016 11.06-8.269 13.516-.563.615-1.024 1.567-1.024 2.115s-.217 1.083-.48 1.188c-.265.106-1.46 1.953-2.656 4.104-1.196 2.152-2.48 4.228-2.855 4.614-.373.386-1.311 1.61-2.083 2.72s-2.125 2.797-3.006 3.748-1.603 1.936-1.604 2.188c0 .251-.948 1.479-2.103 2.727-1.154 1.248-2.502 2.858-2.994 3.579-1.034 1.514-9.63 11.176-11.341 12.746-.634.582-3.234 3.048-5.777 5.48-7.594 7.26-16.945 14.512-18.713 14.512-.328 0-.595.216-.595.48 0 .263-.714.847-1.586 1.297s-2.089 1.272-2.704 1.827-1.613 1.01-2.217 1.01-1.789.467-2.631 1.039c-2.555 1.735-11.78 5.88-13.087 5.88-.472 0-1.308.252-1.859.559-2.128 1.187-7.396 2.72-14.265 4.15-3.766.786-20.426 1.166-21.913.501zm18.419-2.37c8.382-1.49 10.118-1.896 15.028-3.51 5.13-1.687 7.123-2.44 9.075-3.434.55-.28 1.272-.51 1.602-.51 1.3 0 13.656-6.434 15.496-8.068 1.073-.954 2.156-1.734 2.406-1.734.93 0 10.22-7.443 14.671-11.756 2.538-2.458 5.522-5.164 6.632-6.013 2.231-1.707 5.166-4.78 5.18-5.423.01-.227.853-1.27 1.884-2.317 3.185-3.235 9.083-10.441 9.083-11.097 0-.343.519-.997 1.153-1.455.634-.457 1.153-1.114 1.153-1.46s.464-1.132 1.031-1.747c2.634-2.856 16.27-24.305 16.27-25.592 0-.283.194-.601.432-.707s.876-1.1 1.418-2.21c1.411-2.892 2.981-5.448 3.484-5.67.237-.107.432-.656.432-1.22 0-.566.52-1.688 1.153-2.494.635-.807 1.167-1.815 1.183-2.24s1.047-2.591 2.293-4.811c1.245-2.22 2.936-5.464 3.758-7.209a925 925 0 0 1 4.021-8.361c3.214-6.601 3.613-8.153 2.202-8.554-1.61-.457-5.733-1.055-8.742-1.268-1.483-.104-4.253-.475-6.156-.823s-4.827-.788-6.498-.977c-1.671-.19-3.179-.572-3.35-.85-.172-.276-1.032-.503-1.913-.503-.88 0-3.135-.482-5.012-1.07s-4.708-1.477-6.294-1.976c-8.585-2.698-20.809-7.86-21.655-9.145-.175-.265-3.03-1.811-6.343-3.436s-10.177-5.742-15.252-9.15-9.81-6.382-10.524-6.608c-2.044-.646-3.194.05-4.934 2.99-.89 1.503-2.543 4.29-3.673 6.193a539 539 0 0 0-3.15 5.37 80 80 0 0 1-1.998 3.288c-1.58 2.412-.275 4.213 4.384 6.05 2.854 1.126 5.75 3.051 5.76 3.828.014 1.378-1.863 1.256-6.61-.43-6.587-2.341-8.052-2.144-10.757 1.442-3.726 4.941-3.848 5.366-2.03 7.052.87.805 2.182 1.777 2.918 2.158 1.81.939 7.259 5.88 7.259 6.58 0 1.559-8.73 3.098-16.678 2.942-6.136-.12-5.791-.252-10.076 3.817-1.336 1.268-2.97 2.732-3.63 3.253-2.376 1.874-9.941 6.838-10.42 6.838-.27 0-1.718.779-3.219 1.73-1.5.952-3.043 1.73-3.428 1.729-.386 0-1.74.492-3.008 1.095-3.09 1.47-6.097 2.366-7.936 2.366-.83 0-1.653.231-1.828.513-.836 1.354-13.237 2.175-18.637 1.234-2.701-.47-3.919-.473-4.476-.012-.957.795-1.885 6.531-2.332 14.411-.543 9.592-.373 24.791.318 28.257.347 1.745.775 4.468.95 6.052.174 1.585.551 3.32.838 3.855s.525 1.575.53 2.31c.011 1.728 1.162 5.01 2.443 6.963.554.847 1.008 1.938 1.008 2.425s.26.885.577.885.577.52.577 1.154.22 1.153.489 1.153.944 1.01 1.5 2.244c1.128 2.5 8.724 10.696 11.85 12.786 1.111.742 2.149 1.498 2.308 1.68.528.605 10.062 5.028 12.11 5.619 1.915.552 3.543.99 9.005 2.422 1.305.342 3.77.648 5.478.68s3.754.265 4.547.52c2.151.688 10.69.662 14.67-.046zm7.936-23.785c-.381-1.053-.693-2.207-.693-2.564 0-1.038-3.759-7.163-5.747-9.364-1.001-1.108-2.457-2.988-3.234-4.178s-1.722-2.162-2.1-2.162c-.377 0-1.477-.755-2.443-1.677-1.557-1.486-3.352-2.65-7.013-4.545-2.344-1.214-4.314-1.87-10.891-3.622-3.787-1.009-8.003-1.69-10.462-1.69-1.424 0-3.124-.286-3.778-.636-.734-.393-1.326-.427-1.548-.089-.56.855-3.16 1.311-4.112.722-.752-.465-.738-.655.114-1.506 1.941-1.942 27.163-1.062 29.56 1.03.302.264 1.006.48 1.566.48.93 0 4.323 1.899 7.978 4.465 2.82 1.98 6.739 6.404 8.053 9.09.464.95 1.262 2.375 1.773 3.168.511.792 1.26 2.35 1.665 3.46.404 1.11.957 2.537 1.227 3.171.27.635.761 2.192 1.092 3.46 1.168 4.488.38 6.824-1.007 2.987zm3.212-37.46c-1.817-1.021-3.774-2.262-4.35-2.758-1.948-1.678-10.65-6.364-16.388-8.827-3.93-1.686-4.755-2.484-3.937-3.807.358-.58 1.209-.391 3.84.85 1.858.878 3.768 1.817 4.243 2.087 2.73 1.547 5.504 2.813 6.164 2.813.416 0 .756.26.756.577s.52.577 1.154.577 1.153.215 1.153.479c0 .263.714.846 1.586 1.294s2.74 1.53 4.15 2.404 3.131 1.59 3.826 1.59c1.543 0 2.826-1.865 3.289-4.779.19-1.2 1.01-3.632 1.821-5.403.811-1.772 1.475-3.701 1.475-4.288 0-.586.519-1.99 1.153-3.119.635-1.13 1.154-2.366 1.154-2.747 0-.705 2.205-5.54 5.244-11.494.921-1.806 1.676-3.687 1.676-4.18 0-.494.207-.897.461-.897s1.032-1.103 1.73-2.451c2.118-4.097 5.55-9.272 6.314-9.52 1.686-.55-.106 4.452-2.222 6.204-.192.158-1.23 1.975-2.307 4.037s-2.088 3.878-2.246 4.036c-.8.8-5.252 10.113-6.892 14.417-1.028 2.696-2.103 5.42-2.39 6.055-.94 2.079-2.87 8.006-3.735 11.474-.904 3.618-2.445 7.279-3.052 7.25-.201-.01-1.853-.852-3.67-1.874m54.339-11.38c-1.745-.882-3.432-1.828-3.749-2.1-.317-.273-1.253-.93-2.08-1.46-3.138-2.012-6.43-6.1-8.625-10.715-1.249-2.623-2.27-5.104-2.27-5.515s-.519-1.82-1.153-3.132-1.153-3.47-1.153-4.794c0-2.4.01-2.406 1.846-2.037 1.016.203 2.395.884 3.065 1.513.67.63 1.394 1.145 1.608 1.145.58 0 5.547 3.8 8.186 6.262 2.321 2.167 2.951 3.059 5.146 7.29.658 1.268 1.338 2.436 1.51 2.595.171.158.652 1.456 1.069 2.883s.989 3.191 1.273 3.92c.727 1.863.642 4.374-.175 5.191-.852.852-.658.897-4.498-1.046m16.544-13.11c-2.182-4.483-3.722-6.796-7.028-10.551-1.27-1.442-2.827-3.274-3.461-4.072-.635-.798-2.062-2.072-3.172-2.832s-3.238-2.614-4.729-4.12c-1.49-1.505-3.81-3.298-5.154-3.984-2.939-1.5-4.156-2.631-3.672-3.415.615-.995 2.195-.652 6.502 1.412 3.559 1.706 10.757 6.143 11.666 7.191.159.183 1.002.7 1.874 1.15s1.586.995 1.586 1.211.714 1.19 1.586 2.165c2.48 2.767 2.846 3.279 4.064 5.671 2.506 4.92 3.907 12.86 2.43 13.773-.313.194-1.434-1.426-2.492-3.6m-266.283 61.471c3.154-1.017 6.912-2.99 7.22-3.79.53-1.382-1.994-2.037-6.255-1.625-3.523.34-4.358.647-5.97 2.197-1.978 1.901-2.346 3.019-1.153 3.5 1.294.523 4.057.396 6.158-.282m9.242-10.437c.611-1.03 1.32-2.133 1.577-2.45s.835-1.29 1.285-2.163 1.034-1.586 1.298-1.586c.263 0 .48-.34.48-.756s.456-1.26 1.013-1.874c.558-.615 1.914-2.286 3.013-3.713 1.1-1.428 2.164-2.725 2.365-2.884s2.093-2.583 4.203-5.387c3.546-4.715 14.299-15.95 15.266-15.95.87 0 6.433-5.68 6.433-6.57 0-1.204-.466-1.166-2.754.23-1.038.633-2.863 1.15-4.056 1.15-1.783 0-2.345.3-3.159 1.678-1.215 2.056-4.06 5.6-8.056 10.038-1.662 1.845-3.244 3.753-3.516 4.24-.272.486-2.868 3.335-5.768 6.329s-6.885 7.185-8.856 9.313a562 562 0 0 1-6.823 7.22c-4.091 4.23-3.91 5.01 1.17 5.01 3.646 0 3.812-.064 4.885-1.875m68.073-24.338c7.315-1.637 8.715-2.075 11.58-3.622 6.1-3.295 6.663-5.33 1.683-6.09-1.11-.17-3.138-.496-4.507-.726-1.803-.303-3.35-.125-5.622.647-4.273 1.453-4.132 2.557.326 2.557 3.388 0 4.459.627 2.45 1.436-.555.224-3.474.624-6.487.89-7.932.698-15.078 1.7-16.065 2.253-1.239.693 2.118 2.324 4.935 2.398 1.206.032 2.84.265 3.633.52 2.214.708 3.993.65 8.074-.263m-15.57-5.793c0-.948-.67-1.048-3.379-.506-2.423.485-1.708 1.371 1.106 1.371 1.636 0 2.273-.242 2.273-.865m14.562-5.393c.364-.364 1.373-.662 2.242-.662.87 0 1.741-.26 1.937-.576.196-.318.708-.577 1.136-.577 1.384 0 9.285-3.96 10.434-5.23.613-.677 1.893-1.632 2.846-2.123 2.038-1.049 3.858-2.99 3.581-3.82-.612-1.837-9.325-1.724-16.292.21-10.106 2.805-22.176 9.355-22.176 12.032 0 1.013 3.384.441 6.31-1.066 5.63-2.9 8.086-4.037 10.99-5.085 1.744-.63 4.987-1.82 7.206-2.645 4.681-1.74 6.175-1.902 5.68-.613-.358.936-3.735 2.573-5.305 2.573-.51 0-2.36.554-4.11 1.23-1.75.678-3.702 1.427-4.336 1.665-4.598 1.73-10.104 4.693-9.76 5.25.517.836 8.698.356 9.617-.563m-29.551-10.958c1.146-1.25 5.75-3.748 6.157-3.341.175.176-.101.74-.615 1.253-1.243 1.243-1.199 2.237.075 1.712a23 23 0 0 1 2.019-.705c.555-.16 1.009-.479 1.009-.71s1.153-1.011 2.563-1.737c1.41-.725 3.52-2.193 4.686-3.262 1.167-1.069 2.33-1.944 2.585-1.944s.806-.339 1.225-.753 1.929-1.387 3.354-2.162c1.426-.776 3.06-1.829 3.63-2.341s2.194-1.527 3.607-2.254c1.414-.726 2.57-1.511 2.57-1.744 0-.232 1.147-.961 2.55-1.62 2.9-1.364 3.629-2.207 2.705-3.131-.353-.353-.642-.823-.642-1.044 0-.475 10.946-5.878 13.768-6.797 1.807-.589 4.109-2.576 4.109-3.547 0-.23-.843-1.07-1.874-1.866a96 96 0 0 1-3.604-2.95c-.952-.829-1.929-1.506-2.171-1.507-.243 0-2.617-2.206-5.277-4.902s-5.147-4.902-5.527-4.902c-.793 0-4.037 3.311-4.037 4.121 0 .47-2.076 3.728-2.887 4.53-.16.158-.978 1.21-1.817 2.337-2.193 2.946-9.353 10.348-10.017 10.354-.308 0-1.717.925-3.129 2.047-1.413 1.123-3.37 2.422-4.35 2.887-1.64.779-3.75 3.433-3.75 4.717 0 .296 1.103.897 2.45 1.333 2.951.956 3.85 1.972 3.875 4.375.024 2.428 2.478 3.43 4.194 1.714.439-.439 1.867-1.343 3.174-2.01s2.538-1.475 2.737-1.797.784-.584 1.3-.584c.77 0 .716.209-.297 1.153-.681.634-1.463 1.153-1.739 1.153-.275 0-1.129.674-1.898 1.497s-2.176 1.897-3.128 2.387c-.951.49-1.86 1.071-2.018 1.292-.318.442-6.079 3.627-7.576 4.188-.7.262-.874.087-.674-.678.176-.675-.365-1.53-1.562-2.466-1.112-.87-1.986-2.188-2.224-3.351-.216-1.055-.694-2.018-1.062-2.14-.924-.309-5.784 4.944-6.234 6.738-.201.803-.565 1.592-.808 1.754-.955.636-1.138 4.596-.253 5.48 1.035 1.036 3.534.633 4.827-.777zm-11.073-8.57c.159-2.192.03-2.469-1.297-2.802-.81-.203-1.828-.233-2.262-.067-1.01.388-1.463 2.723-.85 4.38.38 1.027.848 1.246 2.353 1.1 1.762-.169 1.89-.331 2.056-2.612zm21.525-1.982c1.83-2.11 1.268-4.166-1.315-4.814-1.147-.288-1.81-.063-2.733.928-1.4 1.503-1.51 2.37-.503 3.982.94 1.507 3.202 1.46 4.55-.096m57.158-.929c1.173-1.037 1.329-3.204.288-4.019-1.11-.868-3.423-1.302-4.928-.924-1.08.27-1.29.615-1.025 1.673.184.733.128 1.461-.125 1.618-.639.394-9.792-1.763-15.652-3.69-4.876-1.602-6.383-1.664-6.383-.262 0 1.167 3.224 3.599 5.32 4.013 1.04.206 2.537.615 3.33.91 2.415.9 13.405 2.2 15.859 1.877 1.268-.167 2.76-.705 3.316-1.196m2.096-8.427c1.04-1.107 1.254-1.914 1.11-4.179-.164-2.566-.352-2.892-2.197-3.791-1.254-.61-3.44-.99-5.767-1.001-3.097-.014-4.29.281-6.868 1.702-1.716.946-3.467 1.72-3.892 1.72-.426 0-.773.26-.773.577s-.39.576-.865.576c-.476 0-.865.241-.865.536 0 1.39 2.09 2.172 8.418 3.15 3.775.582 7.253 1.28 7.728 1.552 1.464.835 2.627.588 3.971-.842m-73.912-5.982c-.153-1.506-.592-3.777-.977-5.045-.385-1.27-.915-3.734-1.177-5.479-.262-1.744-.762-4.34-1.11-5.767s-.772-3.633-.942-4.901c-.171-1.269-.88-4.187-1.574-6.485-.986-3.259-1.503-4.178-2.35-4.18-1.024 0-1.07.414-.779 7.06.235 5.37.676 8.241 1.834 11.966.839 2.696 1.733 5.291 1.986 5.767.254.476.78 2.292 1.17 4.037.95 4.262 1.754 5.767 3.083 5.767.98 0 1.08-.324.836-2.74m47.92 1.046c.144-.433-.072-.65-.505-.505-.416.139-.87.593-1.009 1.01-.144.432.072.648.505.504.416-.139.87-.593 1.009-1.01m51.72-2.813a81 81 0 0 1 4.037-.99c.951-.196 2.249-.58 2.883-.853 5.056-2.174 6.861-2.877 7.389-2.877.335 0 1.146-.495 1.8-1.1s2.855-1.942 4.888-2.968c2.165-1.093 5.47-3.565 7.973-5.964l6.682-6.403c2.34-2.242 5.317-5.83 6.404-7.719.294-.512 1.224-1.58 2.066-2.373s1.86-2.058 2.263-2.811 1.548-2.47 2.546-3.814c.999-1.344 2.335-3.314 2.97-4.379a165 165 0 0 1 2.462-3.971c.72-1.12 1.742-2.88 2.27-3.91.527-1.032 1.17-1.875 1.429-1.875.258 0 .47-.368.47-.819s.907-2.461 2.015-4.469c3.431-6.215 5.673-11.204 8.704-19.364 1.148-3.093 2.32-5.87 2.604-6.17.284-.302.517-.994.517-1.539s.194-1.076.432-1.182c.615-.273 5.268-14.885 7.04-22.105.686-2.793.87-3.348 2.26-6.803.356-.888.648-2.235.648-2.994s.26-1.54.577-1.737c.317-.196.576-.978.576-1.737s.292-2.106.649-2.993c.356-.887.86-2.132 1.119-2.767s.605-2.84.768-4.901c.289-3.642.843-7.036 2.121-12.975.341-1.586.83-4.7 1.087-6.92s.77-6.62 1.143-9.778c.878-7.458.645-8.387-2.102-8.387-1.162 0-3.557.486-5.323 1.081-2.997 1.01-5.27 1.53-12.87 2.941-9.118 1.694-32.045 1.725-41.375.055-24.32-4.352-37.102-8.262-52.514-16.062-13.28-6.72-14.523-7.44-18.017-10.422-1.638-1.398-3.628-2.961-4.424-3.475-.796-.513-2.616-2.037-4.045-3.385-1.43-1.349-3.053-2.599-3.608-2.778-.555-.18-1.01-.565-1.01-.856s-1.02-1.205-2.267-2.03c-2.675-1.77-4.358-1.503-4.928.784-.214.86-.73 2.343-1.147 3.295-.417.951-1.185 3.417-1.708 5.478-2.08 8.207-4.053 15.232-5.427 19.319-.32.951-.88 3.287-1.244 5.19-.365 1.903-1.307 6.444-2.094 10.091-3.435 15.91-3.858 18.513-5.21 32.006-.192 1.902-.554 3.723-.806 4.046-.54.69-.326 35.186.252 40.645.613 5.78 2.662 17.367 3.273 18.509.3.562.547 1.802.547 2.756s.26 1.894.576 2.09c.318.196.577.869.577 1.495 0 1.598 4.236 12.845 5.193 13.787.656.647 4.034 7.715 4.034 8.443 0 .431.26.784.576.784.318 0 .577.34.577.756s.461 1.26 1.025 1.874c1.573 1.716 3.588 4.693 3.588 5.3 0 1.54 9.907 11.528 15.034 15.157 1.088.77 2.71 2.054 3.604 2.852 1.496 1.336 6.243 4.37 7.6 4.858.318.114 1.745.544 3.173.955 1.427.412 2.854.908 3.171 1.102.887.542 4.276 1.561 7.785 2.342 1.745.388 3.561.933 4.037 1.21 1.131.66 11.742.266 14.705-.546zM34.232 102.84c-5.693-.742-11.457-4.585-15.565-10.377-.782-1.102-2.618-4.346-4.082-7.208-3.762-7.358-4.939-9.354-7.83-13.279-4.8-6.512-5.956-7.186-8.41-4.901-1.422 1.325-2.75 1.509-2.75.38 0-.954 4.833-6.147 5.72-6.147.354 0 1.526-.908 2.604-2.018s2.241-2.019 2.585-2.019c1.2 0 .612 1.816-1.036 3.202-2.52 2.12-2.57 3.367-.255 6.477 1.858 2.498 9.036 9.771 12.358 12.523 3.433 2.844 13.895 8.464 19.544 10.5 1.428.515 4.282 1.164 6.344 1.443 6.35.86 20.831 1.19 23.932.546 1.585-.33 4.423-.904 6.305-1.276 4.475-.883 5.17-1.61 4.678-4.89-.212-1.416-.158-2.575.12-2.575.656 0 2.448 3.763 2.448 5.14 0 .584.39 1.994.865 3.133 1.666 3.987.622 6.107-1.324 2.688-.716-1.26-1.412-1.728-2.57-1.73-1.837-.01-11.745 3.04-15.136 4.65-1.268.602-3.734 1.463-5.478 1.913s-4.352 1.225-5.795 1.723c-3.53 1.216-10.64 2.685-12.552 2.591-.851-.042-2.975-.261-4.72-.489m8.65-35.516c-5.668-.593-11.114-1.997-12.37-3.19-.3-.285-.968-.52-1.481-.52s-1.76-.736-2.768-1.637c-1.392-1.242-1.834-2.118-1.834-3.633 0-1.097.23-2.242.513-2.543.282-.301 1.102-2.235 1.823-4.296s1.528-3.995 1.794-4.296.483-1.093.483-1.76c0-.665.216-1.457.48-1.758.645-.738 1.585-4.355 2.314-8.91 1.617-10.102 1.814-12.195 1.246-13.256-.319-.597-.58-2.477-.58-4.179s-.206-3.34-.459-3.642c-.252-.301-.806-1.586-1.231-2.854-.425-1.27-1.257-2.996-1.848-3.838s-1.075-1.827-1.075-2.189c0-.361-.649-1.306-1.442-2.1-.793-.792-1.441-1.685-1.441-1.982 0-.752-7.069-7.403-9.363-8.81C8.864-12.227 2.906-14.811.1-14.811c-3.29 0-5.872-2.236-3.592-3.11 1.441-.554 7.788-.408 11.407.26 4.08.755 9.078 3.388 12.387 6.528 3.24 3.075 8.74 10.334 8.74 11.536 0 .513.204.932.453.932.54 0 2.105 3.97 3.751 9.516.885 2.982 1.257 6.144 1.425 12.11.223 7.933-.018 10.022-2.031 17.588-.464 1.744-.975 3.888-1.134 4.764-.16.877-.52 1.735-.8 1.909s-.51.701-.51 1.174c0 .472-.52 1.933-1.154 3.246s-1.153 2.728-1.153 3.144-.26.756-.577.756-.576.879-.576 1.952c0 2.111.93 2.987 4.613 4.342 1.11.409 2.537.955 3.172 1.214 3.45 1.408 5.796 1.719 12.99 1.719 6.112 0 8.07.186 8.592.814.41.495.46.947.125 1.154-1.427.882-7.833 1.164-13.346.588m46.71-29.116c-4.699-.456-6.95-.946-12.686-2.763-2.062-.653-4.827-1.462-6.145-1.798s-3.005-1.126-3.748-1.757c-1.336-1.131-1.338-1.155-.199-1.866 2.256-1.41 7.126-2.308 17.877-3.295 9.825-.902 14.678-.04 23.26 4.13 5.247 2.55 5.4 4.163.536 5.624-1.353.406-3.108.947-3.901 1.202-2.216.712-10.179.99-14.994.523m-76.12-12.338c-3.47-.787-7.497-2.563-7.497-3.306 0-.258-.324-.47-.72-.47-.397 0-1.5-.676-2.451-1.5-.952-.825-2.38-2.057-3.175-2.739C-2.41 16.11-6.396 10.1-7.324 7.376c-.43-1.26-1.009-2.605-1.287-2.988-.659-.905-.024-1.9 1.213-1.9 1.325 0 11.796 3.43 12.48 4.087.3.29.87.527 1.266.527 1.668 0 8.236 4.474 11.343 7.726 3.861 4.041 6.738 8.16 6.738 9.646 0 .696-.698 1.221-2.163 1.628-2.683.745-4.728.691-8.794-.23m101.205-11.288c-3.75-2.105-15.493-4.558-22.49-4.697-1.696-.034-8.83 1.075-11.821 1.838-4.824 1.23-6.97 1.366-6.605.418.179-.467 1.346-1.338 2.594-1.935 1.247-.598 2.27-1.281 2.274-1.519.01-.238.291-.433.638-.433s1.321-.476 2.163-1.06c.842-.582 2.828-1.4 4.414-1.819 1.586-.418 3.21-1.013 3.61-1.322s3.932-.55 7.85-.536c6.846.026 7.266.1 10.788 1.878 4.716 2.38 9.052 6.049 10.092 8.538.45 1.077.818 2.057.818 2.177 0 .55-1.681-.045-4.325-1.528m-148.72 117.144c.496-1.145 1.14-2.533 1.43-3.084.29-.55.528-1.537.528-2.191 0-.655.36-1.89.8-2.747s1.34-4.282 1.999-7.612c.66-3.33 1.614-8.002 2.121-10.38.927-4.348 1.298-21.798.507-23.86-.198-.515-.83-.937-1.403-.937-2.095 0-10.944 16.912-10.944 20.915 0 .76-.178 1.56-.395 1.778-1.436 1.436-1.936 5.349-1.963 15.367-.038 13.911-.084 13.247.944 13.642 1.648.632 2.53-1.542 2.55-6.281.016-4.105.672-8.235 1.763-11.11.24-.634.737-3.359 1.102-6.054s.895-5.81 1.176-6.92.797-3.965 1.148-6.344.769-5.168.93-6.2c.176-1.12.631-1.873 1.133-1.873.979 0 1.098 2.035.3 5.123-.296 1.147-.833 4.031-1.193 6.41s-.879 5.233-1.151 6.344c-.273 1.11-.779 3.834-1.124 6.055a778 778 0 0 1-1.512 9.226c-1.626 9.538-1.967 12.332-1.616 13.248.482 1.255 1.697.19 2.87-2.515m17.055-.26c4.106-4.123 6.817-7.202 6.817-7.744 0-.28.674-1.139 1.498-1.907 1.627-1.518 4.268-6.297 4.268-7.723 0-.486.26-.884.577-.884s.577-.73.577-1.621c0-1.753-1.838-4.145-3.184-4.145-1.31 0-5.59 3.476-8.089 6.568-1.254 1.55-2.853 3.434-3.554 4.184s-2.113 3.05-3.138 5.11c-1.025 2.059-2.073 3.744-2.33 3.744-.256 0-.465.736-.465 1.634 0 3.347 1.344 2.91 4.725-1.54 1.366-1.796 2.79-3.591 3.166-3.99.376-.398.865-1.306 1.088-2.018.73-2.332 5.705-9.08 6.695-9.08.26 0 .472.52.472 1.154 0 .635-.26 1.154-.576 1.154-.318 0-.577.273-.577.607 0 .335-.777 1.438-1.727 2.451s-1.729 2.119-1.73 2.455c0 .337-.57 1.222-1.265 1.967-1.693 1.818-6.584 9.348-7.074 10.892-.653 2.057 1.089 1.48 3.826-1.268m-26.63-22.855c0-3.698-1.835-8.819-3.718-10.374-.907-.75-1.11-.722-1.823.254-1.329 1.817-1.017 4.264.64 5.019.861.393 1.444 1.141 1.45 1.862.01 1.265 1.116 4.733 1.904 5.962.992 1.549 1.547.572 1.547-2.723m197.509-21.82c2.436-.336 2.913-.606 3.073-1.737.136-.963-.147-1.428-1.01-1.654-.659-.172-1.198-.542-1.198-.822s-.284-.51-.632-.51c-.347 0-1.32-.482-2.162-1.071-.842-.59-2.31-1.25-3.261-1.468s-2.638-.616-3.749-.886c-10.01-2.43-16.513-2.982-17.1-1.452-.473 1.231-.266 1.345 3.6 1.992 3.51.587 12.703 2.55 16.528 3.53 3.202.82 2.775 1.903-.577 1.464-5.459-.714-9.68-1.438-10.663-1.829-.656-.261-1.126-.084-1.354.51-.379.989.947 2.644 2.173 2.713.419.023 1.8.524 3.069 1.113 2.357 1.094 5.909 1.123 13.263.107m41.77-8.159c3.107-.83 1.183-3.141-3.142-3.777-4.503-.662-8.684-1.392-11.525-2.012-1.586-.347-3.662-.78-4.613-.965s-1.99-.528-2.307-.764-1.614-.76-2.883-1.164-3.935-1.476-5.925-2.382c-4.192-1.907-6.48-2.079-7.83-.587-.897.99-.889 1.124.13 2.046.6.543 2.02 1.243 3.157 1.557s2.4.885 2.808 1.27c1.617 1.527 14.01 6.068 18.905 6.926 2.187.384 11.633.278 13.226-.148m-46.244-2.475c.312-.396.56-1.57.55-2.608-.022-2.452-1.795-2.962-5.832-1.68-1.612.513-3.515 1.088-4.228 1.28-1.774.474-1.631 1.331.288 1.728.872.18 2.494.568 3.604.862 1.739.46 3.283.813 4.687 1.072.2.037.618-.257.93-.654m7.529-1.616c.36-3.098-4.425-4.65-5.35-1.734-.623 1.962.875 3.561 3.16 3.373 1.681-.14 2.047-.413 2.19-1.639m-28.015-3.008c1.041-1.037 2.82-2.59 3.953-3.45s2.386-2.174 2.784-2.92c.399-.744 1.452-1.782 2.34-2.307 2.453-1.45 2.583-3.028.364-4.4-1.02-.63-2.212-1.815-2.65-2.634-.578-1.08-1.182-1.442-2.196-1.317-1.134.139-1.675.88-2.863 3.92-1.82 4.66-3.349 8.227-4.859 11.339-1.915 3.947-.095 4.977 3.127 1.769m76.216.695c7.295-1.887 9.582-2.78 9.582-3.743 0-.416-.583-.92-1.297-1.12s-2.336-.836-3.604-1.411-4.253-1.616-6.632-2.311a469 469 0 0 1-6.343-1.898c-2.83-.887-20.409-.666-21.916.275-1.487.929-1.453 1.368.146 1.855 1.568.477 12.891 1.483 18.903 1.679 4.62.15 5.75.513 5.75 1.843q0 .832-1.874.826c-1.723-.01-13.207-.985-16.58-1.415-.792-.101-3.479-.382-5.97-.625-4.212-.41-4.514-.367-4.324.62.632 3.28 26.54 7.395 34.16 5.425m-56.775-3.673c4.82-1.085 9.404-3.032 13.062-5.549 1.357-.934 2.948-1.698 3.534-1.698.587 0 1.44-.519 1.898-1.153.457-.635 1.107-1.154 1.445-1.154.93 0 7.205-5.833 7.205-6.699 0-.416.519-1.035 1.153-1.374.635-.34 1.154-1.127 1.154-1.75 0-1.811-2.179-1.377-4.44.885-1.11 1.11-2.297 2.018-2.637 2.018s-1.027.37-1.528.824c-.5.452-2.597 1.651-4.659 2.663-2.061 1.013-4.138 2.181-4.614 2.597-1.06.925-10.246 5.723-12.06 6.299-1.538.488-6.194 3.552-6.74 4.436-.529.856.966 1.65 2.046 1.087.493-.257 2.824-.902 5.18-1.432m-7.454-2.094c.359-.54 3.615-2.365 11.748-6.59 7.426-3.857 8.627-4.515 9.01-4.934.159-.174 2.039-1.212 4.179-2.307 2.558-1.31 3.89-2.336 3.892-3 .01-1.405-4.454-1.33-8.648.145-1.744.613-3.997 1.124-5.007 1.134-1.319.014-1.938.343-2.201 1.172-.201.635-.736 1.154-1.187 1.154-.751 0-5.09 3.015-7.175 4.985-.475.45-2.487 2.328-4.469 4.175-3.939 3.67-4.715 5.55-2.018 4.89.872-.213 1.716-.584 1.876-.824m2.821-12.715c.707-1.264.722-1.797.093-3.316-.638-1.542-1.048-1.809-2.774-1.809-2.393 0-4.178 1.714-4.178 4.01 0 2.175 1.085 2.989 3.727 2.792 1.774-.132 2.48-.51 3.133-1.677zm53.979-3.45c4.319-1.664 5.704-2.19 10.573-4.017 1.058-.397 2.226-1.018 2.595-1.38s1.876-1.482 3.348-2.489c3.324-2.274 9.557-10.331 8.675-11.214-.425-.424-1.342.023-3.055 1.49-1.347 1.152-2.65 2.095-2.896 2.095s-1.413.656-2.593 1.456c-1.18.801-2.814 1.621-3.63 1.823s-1.873.807-2.349 1.346-2.292 1.696-4.037 2.571c-3.806 1.91-9.795 5.496-10.853 6.5-.42.396-.963.72-1.208.72-.873 0-3.533 2.668-3.096 3.105.64.64 3.255.024 8.526-2.007m43.852.922c1.6-.067 3.465-.42 4.143-.783.679-.363 1.965-.664 2.858-.67.893-.01 1.888-.199 2.212-.432.529-.38 2.007-3.26 2.007-3.91 0-.49-2.956-.264-4.024.308-.585.313-4.785.717-9.333.897-13.01.516-22.732 1.2-23.46 1.649-.367.227-.667.626-.667.886 0 .755 4.797 1.759 8.761 1.833 2 .037 4.416.278 5.368.534.951.257 3.416.319 5.478.138 2.061-.18 5.057-.383 6.657-.45m-46.447-6.586c.596-.701 6.298-3.991 7.591-4.38.74-.222 2.517-1.142 3.947-2.044 1.43-.901 3.797-2.168 5.258-2.814 2.778-1.229 4.215-2.476 3.582-3.11-.48-.48-4.927.183-5.644.841-.302.277-.944.503-1.428.503-1.815 0-8.783 3.137-10.86 4.89-1.187 1.001-3.326 2.619-4.753 3.594-3.517 2.404-5.41 4.528-4.996 5.607.285.743.881.592 3.677-.93 1.836-1 3.467-1.97 3.626-2.157m-40.982 1.724c.868-.93 2.454-3.135 3.525-4.902s2.152-3.213 2.402-3.213.457-.324.46-.72c.01-.397.98-1.76 2.167-3.028 1.189-1.269 2.869-3.257 3.734-4.42.865-1.161 1.905-2.459 2.31-2.883.407-.424 1.627-1.938 2.712-3.365s2.703-3.34 3.596-4.25c1.62-1.652 2.135-3.247 1.046-3.247-.317 0-.577.198-.577.44 0 .243-1.038 1.082-2.307 1.867s-2.306 1.606-2.306 1.827-.542.573-1.204.784c-.662.21-3.145 2.368-5.517 4.796-6.055 6.196-5.961 6.078-6.566 8.268-.3 1.086-1.066 2.534-1.703 3.217-.636.684-1.157 1.52-1.157 1.86s-.779 2.16-1.73 4.044c-.952 1.885-1.73 3.694-1.73 4.02 0 1.092 1.252.61 2.845-1.095m10.744-6.256c6.298-6.186 12.555-13.44 13.73-15.914.48-1.012 1.43-2.48 2.112-3.263 2.205-2.533 5.233-8.184 5.054-9.434-.383-2.683-5.652.354-5.652 3.258 0 1.449-2.35 5.38-4.91 8.213a68 68 0 0 0-3.083 3.74 49 49 0 0 1-3.252 3.789c-.951.978-2.378 2.654-3.171 3.724s-2.1 2.74-2.903 3.708c-1.589 1.916-4.594 6.455-4.594 6.94 0 1.188 2.245-.415 6.67-4.761m73.2 4.197c2.854-.173 7.33-.336 9.947-.364 4.147-.044 4.758-.18 4.758-1.07 0-1.685-1.341-2.298-5.826-2.663-8.342-.68-23.008 1.589-23.008 3.56 0 1.12 1.11 1.353 5.19 1.09 2.062-.131 6.084-.38 8.939-.553m-85.636-5.28c0-.427.26-.776.577-.776s.577-.284.577-.632c0-.347.522-1.365 1.161-2.263.64-.897 1.284-2.754 1.432-4.125.595-5.493.954-7.737 1.413-8.838.264-.634.778-2.256 1.143-3.604.785-2.9 2.032-3.345 1.614-.577a30 30 0 0 1-.817 3.604c-.294.952-.39 2.47-.213 3.375l.322 1.645 1.817-1.74c2.274-2.177 2.726-4.194 2.219-9.918-.427-4.823-1.042-5.687-3.047-4.283-1.229.86-5.996 10.293-7.415 14.67-.462 1.427-1.051 3.114-1.309 3.748-1.64 4.045-2.633 9.466-2.063 11.263.369 1.162.439 1.172 1.488.223.606-.548 1.101-1.345 1.101-1.772m74.871-15.536c.985-.69 1.27-1.376 1.138-2.74-.153-1.568-.473-1.891-2.329-2.35-1.768-.437-2.359-.344-3.315.522-3.291 2.978.823 7.148 4.506 4.568m-8.663-10.636c2.5-2.328.884-5.744-2.717-5.744-3.354 0-5.446 3.056-3.805 5.56 1.172 1.788 4.694 1.888 6.522.184m9.664-16.63c.172-.831.707-3.07 1.19-4.972a181 181 0 0 0 1.36-5.767c.267-1.269.887-3.864 1.378-5.767s.902-4.251.913-5.218c.02-1.684.887-3.143 1.866-3.143.765 0 .525 2.152-.663 5.934-.618 1.97-1.265 4.878-1.437 6.464s-.568 3.921-.88 5.19c-1.264 5.139.013 7.575 1.89 3.604 3.554-7.522 4.993-13.89 4.982-22.057-.01-6.23-.789-7.892-3.12-6.644-.79.423-1.738 1.69-2.112 2.825-.374 1.131-1.042 2.42-1.485 2.863s-.956 1.554-1.139 2.467-.56 1.66-.837 1.66-.504.468-.504 1.038-.219 1.285-.486 1.586c-2.344 2.64-5.37 21.892-3.703 23.558.585.586 2.406-1.78 2.787-3.62m29.181-5.556c1.373-1.114 3.208-2.476 4.078-3.027s1.592-1.392 1.604-1.868c.031-1.208 2.628-4.036 3.706-4.036.491 0 .893-.457.893-1.015s.544-1.354 1.21-1.77 1.06-.903.88-1.085c-.344-.343 1.182-3.38 2.312-4.6.36-.387 1.124-2.014 1.7-3.614s1.254-2.91 1.509-2.91.462-.503.462-1.119.26-1.28.577-1.476-.893.89-.893-.202c0-1.783-.161-1.983-1.586-1.974-1.358.01-3.646-.11-6.002 1.877-.384.323-.877.588-1.096.588-.604 0-5.3 5.095-7.76 8.418-1.197 1.616-2.585 3.348-3.085 3.848-1.345 1.345-6.505 11.617-6.238 12.418.512 1.537 1.756.709 4.162-2.77.767-1.111 1.806-2.408 2.309-2.884s1.737-2.163 2.742-3.749c2.484-3.916 5.398-7.877 6.628-9.006.559-.513 1.016-1.175 1.016-1.473 0-.297.878-1.5 1.952-2.671 3.179-3.471 5.373-2.481 2.306 1.04-.828.952-1.93 2.379-2.45 3.172-1.732 2.646-3.16 4.037-4.147 4.037-.603 0-1.102.607-1.303 1.586-.179.872-.733 2.104-1.232 2.739-.498.634-1.665 2.32-2.592 3.748-.927 1.427-2.159 3.114-2.737 3.748-1.897 2.081-3.154 4.404-2.834 5.237.472 1.23 1.172 1.015 3.91-1.207" style="fill:#000;stroke-width:.57666862"/><path d="M460.798-17.104c-3.176-1.897-4.599-5.998-3.283-9.463.682-1.796 2.794-3.93 4.971-5.026 3.126-1.572 6.342-1.86 9.123-.817 2.04.765 2.993 1.59 3.807 3.293l.644 1.347.458-.91c.252-.501 2.511-6.178 5.023-12.615s4.819-12.203 5.128-12.813l.564-1.11.725.312c2.356 1.013 3.733 4.7 3.75 10.041.019 5.887-1.966 12.326-5.03 16.326-.668.871-2.667 2.086-2.151 1.307 2.299-3.475 3.503-7.887 3.894-14.275.209-3.405.32-7.776.205-8.142-.267-.86-.5-.474-2.618 4.35-.884 2.016-3.119 6.94-4.965 10.941a2497 2497 0 0 0-4.736 10.316c-1.575 3.472-2.207 4.414-3.826 5.701-3.303 2.625-8.446 3.17-11.683 1.237" style="fill:#fff;stroke:none;stroke-width:1.5;stroke-miterlimit:4;stroke-dasharray:none;stroke-opacity:1"/><text xml:space="preserve" y="-.529" style="font-style:normal;font-variant:normal;font-weight:400;font-stretch:normal;font-size:89.09848022px;line-height:1.25;font-family:&quot;URW Chancery L&quot;;-inkscape-font-specification:&quot;URW Chancery L&quot;;letter-spacing:0;word-spacing:0;fill:#fff;fill-opacity:1;stroke:none;stroke-width:2.22746205"><textPath xlink:href="#e"><tspan style="font-style:normal;font-variant:normal;font-weight:400;font-stretch:normal;font-family:&quot;URW Chancery L&quot;;-inkscape-font-specification:&quot;URW Chancery L&quot;;fill:#fff;stroke-width:2.22746205">РАЙОННЫЙ</tspan></textPath></text><path id="e" d="M85.742-183.645c145.234-63.287 362.92-67.564 502.32 8.552" style="fill:none;stroke:#a13423;stroke-width:.26458332px;stroke-linecap:butt;stroke-linejoin:miter;stroke-opacity:1"/><text xml:space="preserve" y="-.529" style="font-style:normal;font-variant:normal;font-weight:400;font-stretch:normal;font-size:89.09848022px;line-height:1.25;font-family:&quot;URW Chancery L&quot;;-inkscape-font-specification:&quot;URW Chancery L&quot;;letter-spacing:0;word-spacing:0;fill:#fff;fill-opacity:1;stroke:#1a1a1a;stroke-width:.5;stroke-miterlimit:4;stroke-dasharray:none;stroke-opacity:1"><textPath xlink:href="#e"><tspan style="font-style:normal;font-variant:normal;font-weight:400;font-stretch:normal;font-family:&quot;URW Chancery L&quot;;-inkscape-font-specification:&quot;URW Chancery L&quot;;fill:#fff;stroke:#1a1a1a;stroke-width:.5;stroke-miterlimit:4;stroke-dasharray:none;stroke-opacity:1">РАЙОННЫЙ</tspan></textPath></text><text xml:space="preserve" x="201.322" y="392.932" style="font-style:normal;font-variant:normal;font-weight:400;font-stretch:normal;font-size:130.68385315px;line-height:1.25;font-family:&quot;URW Chancery L&quot;;-inkscape-font-specification:&quot;URW Chancery L&quot;;letter-spacing:0;word-spacing:0;fill:#000;fill-opacity:1;stroke:#000;stroke-width:6;stroke-miterlimit:4;stroke-dasharray:none;stroke-opacity:1" transform="rotate(-4.607)"><tspan x="201.322" y="392.932" style="font-style:italic;font-variant:normal;font-weight:500;font-stretch:normal;font-family:&quot;URW Chancery L&quot;;-inkscape-font-specification:&quot;URW Chancery L Medium Italic&quot;;fill:#000;stroke:#000;stroke-width:6;stroke-miterlimit:4;stroke-dasharray:none;stroke-opacity:1">ДК</tspan></text></g></svg>