<svg width="40" height="40" viewBox="0 0 40 40" fill="none" xmlns="http://www.w3.org/2000/svg">
<path d="M40 34.4444C40 37.5556 37.5556 40 34.4444 40H5.55556C2.44444 40 0 37.5556 0 34.4444V5.55556C0 2.44444 2.44444 0 5.55556 0H34.4444C37.5556 0 40 2.44444 40 5.55556V34.4444Z" fill="#FF9800"/>
<path d="M23.2223 27.111C24.8889 26.7777 26.4445 26.111 27.7778 25.2221C28.8889 24.5554 29.2223 23.111 28.5556 21.9999C27.8889 20.8888 26.4445 20.5554 25.3334 21.2221C22.1111 23.2221 17.8889 23.2221 14.6667 21.2221C13.5556 20.5554 12.1111 20.8888 11.4445 21.9999C10.7778 23.111 11.1111 24.5554 12.2223 25.2221C13.6667 26.111 15.2223 26.7777 16.7778 27.111L12.3334 31.5555C11.4445 32.4443 11.4445 33.8888 12.3334 34.8888C12.7778 35.3332 13.3334 35.5554 14 35.5554C14.5556 35.5554 15.2223 35.3332 15.6667 34.8888L20 30.5554L24.3334 34.8888C25.2223 35.7777 26.6667 35.7777 27.6667 34.8888C28.5556 33.9999 28.5556 32.5555 27.6667 31.5555L23.2223 27.111ZM20 4.44434C15.6667 4.44434 12.2223 7.88878 12.2223 12.2221C12.2223 16.5554 15.6667 19.9999 20 19.9999C24.3334 19.9999 27.7778 16.5554 27.7778 12.2221C27.7778 7.88878 24.3334 4.44434 20 4.44434ZM20 15.5554C18.1111 15.5554 16.6667 14.111 16.6667 12.2221C16.6667 10.3332 18.1111 8.88878 20 8.88878C21.8889 8.88878 23.3334 10.3332 23.3334 12.2221C23.3334 14.111 21.8889 15.5554 20 15.5554Z" fill="white"/>
</svg>
